<?xml version="1.0" encoding="UTF-8" standalone="no"?>
<!-- Created with Inkscape (http://www.inkscape.org/) -->
<svg
   xmlns:svg="http://www.w3.org/2000/svg"
   xmlns="http://www.w3.org/2000/svg"
   version="1.0"
   width="1143"
   height="761"
   id="svg2413">
  <defs
     id="defs2415" />
  <g
     transform="translate(154.35715,-100.43361)"
     id="layer1">
    <rect
       width="1164"
       height="781"
       x="-160.35715"
       y="95.433609"
       id="rect3367"
       style="opacity:1;fill:#ffffff;fill-opacity:1;fill-rule:evenodd;stroke:none;stroke-width:1px;stroke-linecap:butt;stroke-linejoin:miter;marker:none;marker-start:none;marker-mid:none;marker-end:none;stroke-miterlimit:4;stroke-dasharray:none;stroke-dashoffset:0;stroke-opacity:1;visibility:visible;display:inline;overflow:visible;enable-background:accumulate" />
    <g
       transform="translate(-0.2175228,-1.5452773)"
       id="g3230">
      <path
         d="M 170.80379,48.707771 C 170.2261,47.937517 155.20615,47.167263 148.27386,60.839269 C 141.34158,74.511274 146.54079,101.66272 148.85155,107.82475 C 151.16231,113.98678 160.39267,134.8061 179.46914,145.56719 C 186.97911,149.80359 190.83039,151.72922 190.83039,151.72922 C 190.83039,151.72922 195.25935,159.04663 195.45191,162.8979 C 195.64447,166.74917 194.68166,171.75582 188.71219,179.2658 C 182.74272,186.77577 183.32041,184.27245 178.50633,191.01217 C 173.69224,197.75189 169.07072,201.98828 168.30046,213.92722 C 167.53021,225.86615 170.80379,233.95382 180.62452,241.65636 C 190.44526,249.35889 218.75209,248.7812 218.75209,246.47044 C 218.75209,244.15968 215.28595,236.84227 215.28595,234.53151 C 215.28595,232.22075 218.94465,215.66029 217.21158,213.34953 C 215.47851,211.03877 211.04955,205.83955 204.88752,206.22468 C 201.94078,207.75813 198.91805,222.78514 198.91805,222.78514 C 198.91805,222.78514 194.87422,223.17026 196.22216,212.57927 C 197.57011,201.98828 201.03625,196.01882 204.69496,193.13036 C 208.35366,190.24191 209.89417,188.31628 209.89417,188.31628 C 209.89417,188.31628 219.52234,199.87009 219.32978,210.46108 C 219.13721,221.05207 216.24876,238.38278 216.24876,238.38278 L 219.13721,245.50762 C 219.13721,245.50762 238.97125,246.85557 250.52506,258.60194 C 262.07887,270.34831 279.21701,283.82775 282.49059,285.56082 C 285.76417,287.29389 293.08158,291.14516 301.36181,290.37491 C 309.64204,289.60466 319.65534,285.56082 319.65534,285.56082 C 319.65534,285.56082 315.03382,275.1624 315.80407,269.57806 C 316.57432,263.99372 320.04047,255.52092 319.07765,252.43991 C 318.11483,249.35889 315.03382,239.53816 315.03382,239.53816 C 315.03382,239.53816 343.34064,240.50097 348.92498,237.61252 C 354.50933,234.72407 359.32341,231.83562 359.9011,222.9777 C 360.47879,214.11978 353.93163,214.11978 352.96882,210.46108 C 352.006,206.80237 358.55316,200.44778 358.36059,198.13701 C 358.16803,195.82625 358.55316,194.09318 356.82009,193.51549 C 355.08702,192.9378 354.1242,191.58986 354.1242,191.58986 C 354.1242,191.58986 358.16803,188.12371 358.16803,186.39064 C 358.16803,184.65757 352.006,179.45836 353.16138,177.72529 C 354.31676,175.99222 369.14415,174.25915 370.68466,173.29633 C 372.22516,172.33351 372.80285,170.21531 371.64747,167.51942 C 370.49209,164.82354 351.04318,138.24978 351.04318,138.24978 C 351.04318,138.24978 350.65806,116.49011 349.11755,110.7132 C 347.57704,104.9363 335.44554,70.467442 308.87179,57.56569 C 282.29803,44.663938 249.56224,55.640055 243.9779,57.56569 C 238.39356,59.491325 196.19414,71.951092 188.51962,101.85529 C 182.93529,123.61495 187.36424,136.90183 187.36424,136.90183 C 187.36424,136.90183 176.38813,130.7398 172.72942,121.30419 C 169.07072,111.86859 166.18226,106.47681 167.14508,101.47016 C 168.1079,96.463508 173.49967,77.399726 180.81708,73.741021 C 171.7666,73.355894 166.95252,72.778203 166.95252,72.778203 C 166.95252,72.778203 163.48638,53.329294 170.80379,48.707771 z"
         transform="translate(-154.35715,100.43361)"
         id="path2436"
         style="fill:#000000;fill-opacity:1;fill-rule:evenodd;stroke:none;stroke-width:1px;stroke-linecap:butt;stroke-linejoin:miter;stroke-opacity:1" />
      <path
         d="M 164.35175,110.33333 C 164.35175,110.33333 162.60674,125.24473 168.50829,131.90239 C 175.59354,139.89539 187.0442,147.18048 188.61694,147.85451 C 190.18969,148.52855 187.71823,142.23757 187.71823,142.23757 C 187.71823,142.23757 171.99531,132.34837 164.35175,110.33333 z"
         transform="translate(-154.35715,100.43361)"
         id="path2438"
         style="fill:#ffffff;fill-opacity:1;fill-rule:evenodd;stroke:none;stroke-width:1px;stroke-linecap:butt;stroke-linejoin:miter;stroke-opacity:1" />
      <path
         d="M 161.65562,124.93738 C 161.65562,124.93738 151.43278,107.52486 149.41068,96.403315 C 147.38858,85.281768 147.61326,71.688767 150.08471,67.869245 C 152.10681,70.902394 151.32044,82.13628 151.32044,82.13628 C 151.32044,82.13628 152.66851,72.587477 152.66851,71.688766 C 152.66851,71.333526 155.36464,73.823205 155.58932,80.001842 C 155.81399,86.180479 158.51013,93.145488 158.51013,93.145488 C 158.51013,93.145488 156.26335,74.834254 156.93738,73.598527 C 157.61142,72.362799 159.40884,77.867403 171.99079,77.642726 C 165.25046,89.101289 162.55433,98.762431 161.99263,104.04236 C 161.43094,109.32228 161.65562,125.04972 161.65562,124.93738 z"
         transform="translate(-154.35715,100.43361)"
         id="path2440"
         style="fill:#ffffff;fill-opacity:1;fill-rule:evenodd;stroke:none;stroke-width:1px;stroke-linecap:butt;stroke-linejoin:miter;stroke-opacity:1" />
      <path
         d="M 212.75297,237.4575 C 213.54725,240.06726 215.70314,242.56357 215.02233,243.69825 C 214.34152,244.83293 206.73915,246.19455 205.26406,244.26559 C 203.78898,242.33663 195.61926,233.03223 195.61926,233.03223 C 195.61926,233.03223 200.95227,244.37906 200.15799,244.15212 C 199.36371,243.92519 198.56944,245.2868 194.25764,240.63461 C 189.94585,235.98241 183.13776,225.31639 183.13776,225.31639 C 183.13776,225.31639 186.5418,234.39385 188.35729,236.32281 C 190.17279,238.25177 191.30747,240.63461 190.96706,241.42888 C 190.62666,242.22316 187.78995,241.76929 185.63406,239.38646 C 183.47816,237.00362 179.50677,232.69183 179.50677,232.69183 C 179.50677,232.69183 184.38591,239.27299 183.81856,239.72686 C 183.25122,240.18073 177.57781,236.32281 175.76232,233.03223 C 173.94683,229.74165 168.61382,223.5009 172.47174,211.24633 C 176.32966,198.99176 180.07411,194.33956 180.07411,194.33956 C 180.07411,194.33956 178.03168,205.57292 182.45695,213.28876 C 186.88221,221.0046 196.86741,225.6568 202.42736,226.45107 C 207.9873,227.24535 214.34152,226.56454 214.34152,226.56454 C 214.34152,226.56454 211.61829,231.67061 212.75297,237.4575 z"
         transform="translate(-154.35715,100.43361)"
         id="path2442"
         style="fill:#ffffff;fill-opacity:1;fill-rule:evenodd;stroke:none;stroke-width:1px;stroke-linecap:butt;stroke-linejoin:miter;stroke-opacity:1" />
      <path
         d="M 202.9947,218.28136 C 202.9947,218.28136 203.78898,211.58673 205.03713,210.79246 C 206.28528,209.99818 209.23545,209.09043 211.16441,211.13286 C 213.09337,213.17529 216.15702,215.21772 215.58967,218.39483 C 215.02233,221.57194 207.76037,224.29518 205.03713,223.5009 C 202.31389,222.70662 201.97348,222.70662 202.9947,218.28136 z"
         transform="translate(-154.35715,100.43361)"
         id="path2444"
         style="fill:#ffffff;fill-opacity:1;fill-rule:evenodd;stroke:none;stroke-width:1px;stroke-linecap:butt;stroke-linejoin:miter;stroke-opacity:1" />
      <path
         d="M 191.76134,219.07564 C 191.76134,219.07564 182.34348,210.33858 182.79735,202.62274 C 183.25122,194.9069 187.10914,186.39679 190.62666,181.40418 C 194.14417,176.41158 201.97349,170.28429 201.97349,170.28429 C 201.97349,170.28429 202.31389,175.6173 203.44858,177.31933 C 204.58326,179.02135 206.39875,182.99274 207.07956,183.67354 C 207.76037,184.35435 198.90984,190.36817 195.50579,198.42442 C 192.10175,206.48066 191.30747,210.90592 191.76134,219.07564 z"
         transform="translate(-154.35715,100.43361)"
         id="path2446"
         style="fill:#ffffff;fill-opacity:1;fill-rule:evenodd;stroke:none;stroke-width:1px;stroke-linecap:butt;stroke-linejoin:miter;stroke-opacity:1" />
      <path
         d="M 319.84899,142.35727 C 319.84899,142.35727 325.13003,136.84887 332.79558,133.97606 C 333.49745,133.71302 335.79374,132.54512 336.88398,135.81584 C 337.97422,139.08656 338.8451,142.42177 338.1105,145.90055 C 337.57091,148.45584 337.7396,148.65831 332.72744,148.96685 C 329.25676,149.1805 325.89013,148.52448 322.64273,147.33149 C 326.66299,146.65009 332.31314,147.25971 333.81768,146.78637 C 333.45815,144.21497 332.06835,140.72189 332.79558,138.1326 C 331.50092,137.72376 321.19393,144.03635 319.84899,142.35727 z"
         transform="translate(-154.35715,100.43361)"
         id="path2448"
         style="fill:#ffffff;fill-opacity:1;fill-rule:evenodd;stroke:none;stroke-width:1px;stroke-linecap:butt;stroke-linejoin:miter;stroke-opacity:1" />
      <path
         d="M 165.59691,52.004914 C 165.59691,52.004914 153.56359,55.613799 152.539,60.395229 C 151.51441,65.17666 153.34313,65.357058 154.57682,66.394761 C 156.30028,67.844428 161.61235,71.03958 162.1588,70.766355 C 162.70525,70.49313 161.4004,65.04948 161.68065,61.886556 C 162.1588,56.49037 164.70893,52.414751 165.59691,52.004914 z"
         transform="translate(-154.35715,100.43361)"
         id="path3220"
         style="opacity:1;fill:#ffffff;fill-opacity:1;fill-rule:evenodd;stroke:none;stroke-width:1px;stroke-linecap:butt;stroke-linejoin:miter;marker:none;marker-start:none;marker-mid:none;marker-end:none;stroke-miterlimit:4;stroke-dasharray:none;stroke-dashoffset:0;stroke-opacity:1;visibility:visible;display:inline;overflow:visible;enable-background:accumulate" />
      <path
         d="M 305.2462,93.046546 L 287.05438,94.301154 L 322.68525,73.9765 L 332.59666,81.253228 L 320.80334,91.039173 L 336.36048,87.902652 L 339.24608,92.042859 L 327.70369,98.943205 L 341.37892,99.319587 L 342.63352,107.22362 L 333.22396,110.4856 C 333.22396,110.4856 341.25346,112.61844 342.88445,115.37857 C 344.51544,118.13871 345.01728,119.39332 345.01728,119.39332 C 345.01728,119.39332 324.69263,121.02431 317.91774,123.15714 C 311.14286,125.28998 275.26106,137.45968 275.26106,137.45968 C 275.26106,137.45968 272.8773,126.67005 261.83675,125.91728 C 250.7962,125.16452 244.52316,129.93203 243.89585,133.06855 C 243.26855,136.20507 244.14677,145.11279 246.53053,150.00576 C 248.91428,154.89873 254.43456,159.91717 256.69286,161.17178 C 258.95115,162.42638 264.84781,165.31198 264.84781,167.1939 C 264.84781,169.07581 268.48617,178.35991 272.50092,181.99827 C 276.51567,185.63664 281.28318,187.51855 283.7924,187.51855 C 282.66325,190.78053 280.27949,192.28606 277.64481,191.90968 C 271.65097,191.05343 264.59689,184.13111 263.34228,179.9909 C 262.08767,175.85069 257.61852,166.86255 254.68548,165.18652 C 252.92903,164.18283 245.90323,161.29723 245.025,159.41532 C 244.14678,157.53341 241.38664,151.76221 239.50472,151.38583 C 237.62281,151.00945 225.07673,152.01314 220.93652,154.89873 C 216.79631,157.78433 201.74101,166.19021 201.74101,166.19021 C 201.74101,166.19021 199.2318,166.31567 199.2318,164.3083 C 199.2318,162.30092 211.65242,152.1386 211.65242,152.1386 C 211.65242,152.1386 244.77408,117.76233 247.03237,116.8841 C 249.29067,116.00588 251.09838,114.32844 257.822,113.49666 C 263.85103,112.7508 265.47511,113.26945 265.47511,113.26945 L 251.53216,108.10875 C 251.53216,108.10875 265.93644,103.61587 278.89942,102.07973 C 290.9234,100.65486 300.47869,99.69597 300.47869,99.69597 C 300.47869,99.69597 304.86981,96.433988 305.2462,93.046546 z"
         transform="translate(-154.35715,100.43361)"
         id="path3222"
         style="opacity:1;fill:#ffffff;fill-opacity:1;fill-rule:evenodd;stroke:none;stroke-width:1px;stroke-linecap:butt;stroke-linejoin:miter;marker:none;marker-start:none;marker-mid:none;marker-end:none;stroke-miterlimit:4;stroke-dasharray:none;stroke-dashoffset:0;stroke-opacity:1;visibility:visible;display:inline;overflow:visible;enable-background:accumulate" />
      <path
         d="M 198.54696,158.34807 L 199.29282,148.8011 C 199.29282,148.8011 210.33149,127.76796 219.72928,123.74033 C 229.12707,119.71271 247.02762,109.41988 247.02762,109.41988 L 198.54696,158.34807 z"
         transform="translate(-154.35715,100.43361)"
         id="path3224"
         style="opacity:1;fill:#ffffff;fill-opacity:1;fill-rule:evenodd;stroke:none;stroke-width:1px;stroke-linecap:butt;stroke-linejoin:miter;marker:none;marker-start:none;marker-mid:none;marker-end:none;stroke-miterlimit:4;stroke-dasharray:none;stroke-dashoffset:0;stroke-opacity:1;visibility:visible;display:inline;overflow:visible;enable-background:accumulate" />
      <path
         d="M 258.81215,133.43646 C 258.81215,133.43646 254.14544,131.8448 252.24862,136.27072 C 250.90608,139.40332 250.90608,142.83426 252.24862,145.07182 C 254.1065,148.16828 256.57458,148.20442 258.51381,147.30939 C 256.12707,145.6685 254.63536,142.83426 254.9337,139.85083 C 255.23204,136.86741 256.42541,134.62983 258.81215,133.43646 z"
         transform="translate(-154.35715,100.43361)"
         id="path3226"
         style="fill:#ffffff;fill-opacity:1;fill-rule:evenodd;stroke:none;stroke-width:1px;stroke-linecap:butt;stroke-linejoin:miter;stroke-opacity:1" />
      <path
         d="M 271.93923,168.79006 C 271.93923,168.79006 272.23757,174.01105 276.86188,173.86188 C 281.48619,173.71271 281.33702,171.47514 281.63536,169.53591 C 278.8011,171.92266 279.55193,171.02764 277.30939,171.02763 C 275.81768,171.02762 274.02762,171.32596 271.93923,168.79006 z"
         transform="translate(-154.35715,100.43361)"
         id="path3228"
         style="fill:#ffffff;fill-opacity:1;fill-rule:evenodd;stroke:none;stroke-width:1px;stroke-linecap:butt;stroke-linejoin:miter;stroke-opacity:1" />
    </g>
    <g
       transform="translate(617.57629,-1.5452773)"
       id="g3244">
      <path
         d="M 170.80379,48.707771 C 170.2261,47.937517 155.20615,47.167263 148.27386,60.839269 C 141.34158,74.511274 146.54079,101.66272 148.85155,107.82475 C 151.16231,113.98678 160.39267,134.8061 179.46914,145.56719 C 186.97911,149.80359 190.83039,151.72922 190.83039,151.72922 C 190.83039,151.72922 195.25935,159.04663 195.45191,162.8979 C 195.64447,166.74917 194.68166,171.75582 188.71219,179.2658 C 182.74272,186.77577 183.32041,184.27245 178.50633,191.01217 C 173.69224,197.75189 169.07072,201.98828 168.30046,213.92722 C 167.53021,225.86615 170.80379,233.95382 180.62452,241.65636 C 190.44526,249.35889 218.75209,248.7812 218.75209,246.47044 C 218.75209,244.15968 215.28595,236.84227 215.28595,234.53151 C 215.28595,232.22075 218.94465,215.66029 217.21158,213.34953 C 215.47851,211.03877 211.04955,205.83955 204.88752,206.22468 C 201.94078,207.75813 198.91805,222.78514 198.91805,222.78514 C 198.91805,222.78514 194.87422,223.17026 196.22216,212.57927 C 197.57011,201.98828 201.03625,196.01882 204.69496,193.13036 C 208.35366,190.24191 209.89417,188.31628 209.89417,188.31628 C 209.89417,188.31628 219.52234,199.87009 219.32978,210.46108 C 219.13721,221.05207 216.24876,238.38278 216.24876,238.38278 L 219.13721,245.50762 C 219.13721,245.50762 238.97125,246.85557 250.52506,258.60194 C 262.07887,270.34831 279.21701,283.82775 282.49059,285.56082 C 285.76417,287.29389 293.08158,291.14516 301.36181,290.37491 C 309.64204,289.60466 319.65534,285.56082 319.65534,285.56082 C 319.65534,285.56082 315.03382,275.1624 315.80407,269.57806 C 316.57432,263.99372 320.04047,255.52092 319.07765,252.43991 C 318.11483,249.35889 315.03382,239.53816 315.03382,239.53816 C 315.03382,239.53816 343.34064,240.50097 348.92498,237.61252 C 354.50933,234.72407 359.32341,231.83562 359.9011,222.9777 C 360.47879,214.11978 353.93163,214.11978 352.96882,210.46108 C 352.006,206.80237 358.55316,200.44778 358.36059,198.13701 C 358.16803,195.82625 358.55316,194.09318 356.82009,193.51549 C 355.08702,192.9378 354.1242,191.58986 354.1242,191.58986 C 354.1242,191.58986 358.16803,188.12371 358.16803,186.39064 C 358.16803,184.65757 352.006,179.45836 353.16138,177.72529 C 354.31676,175.99222 369.14415,174.25915 370.68466,173.29633 C 372.22516,172.33351 372.80285,170.21531 371.64747,167.51942 C 370.49209,164.82354 351.04318,138.24978 351.04318,138.24978 C 351.04318,138.24978 350.65806,116.49011 349.11755,110.7132 C 347.57704,104.9363 335.44554,70.467442 308.87179,57.56569 C 282.29803,44.663938 249.56224,55.640055 243.9779,57.56569 C 238.39356,59.491325 196.19414,71.951092 188.51962,101.85529 C 182.93529,123.61495 187.36424,136.90183 187.36424,136.90183 C 187.36424,136.90183 176.38813,130.7398 172.72942,121.30419 C 169.07072,111.86859 166.18226,106.47681 167.14508,101.47016 C 168.1079,96.463508 173.49967,77.399726 180.81708,73.741021 C 171.7666,73.355894 166.95252,72.778203 166.95252,72.778203 C 166.95252,72.778203 163.48638,53.329294 170.80379,48.707771 z"
         transform="translate(-154.35715,100.43361)"
         id="path3246"
         style="fill:#000000;fill-opacity:1;fill-rule:evenodd;stroke:none;stroke-width:1px;stroke-linecap:butt;stroke-linejoin:miter;stroke-opacity:1" />
      <path
         d="M 164.35175,110.33333 C 164.35175,110.33333 162.60674,125.24473 168.50829,131.90239 C 175.59354,139.89539 187.0442,147.18048 188.61694,147.85451 C 190.18969,148.52855 187.71823,142.23757 187.71823,142.23757 C 187.71823,142.23757 171.99531,132.34837 164.35175,110.33333 z"
         transform="translate(-154.35715,100.43361)"
         id="path3248"
         style="fill:#ffffff;fill-opacity:1;fill-rule:evenodd;stroke:none;stroke-width:1px;stroke-linecap:butt;stroke-linejoin:miter;stroke-opacity:1" />
      <path
         d="M 161.65562,124.93738 C 161.65562,124.93738 151.43278,107.52486 149.41068,96.403315 C 147.38858,85.281768 147.61326,71.688767 150.08471,67.869245 C 152.10681,70.902394 151.32044,82.13628 151.32044,82.13628 C 151.32044,82.13628 152.66851,72.587477 152.66851,71.688766 C 152.66851,71.333526 155.36464,73.823205 155.58932,80.001842 C 155.81399,86.180479 158.51013,93.145488 158.51013,93.145488 C 158.51013,93.145488 156.26335,74.834254 156.93738,73.598527 C 157.61142,72.362799 159.40884,77.867403 171.99079,77.642726 C 165.25046,89.101289 162.55433,98.762431 161.99263,104.04236 C 161.43094,109.32228 161.65562,125.04972 161.65562,124.93738 z"
         transform="translate(-154.35715,100.43361)"
         id="path3250"
         style="fill:#ffffff;fill-opacity:1;fill-rule:evenodd;stroke:none;stroke-width:1px;stroke-linecap:butt;stroke-linejoin:miter;stroke-opacity:1" />
      <path
         d="M 212.75297,237.4575 C 213.54725,240.06726 215.70314,242.56357 215.02233,243.69825 C 214.34152,244.83293 206.73915,246.19455 205.26406,244.26559 C 203.78898,242.33663 195.61926,233.03223 195.61926,233.03223 C 195.61926,233.03223 200.95227,244.37906 200.15799,244.15212 C 199.36371,243.92519 198.56944,245.2868 194.25764,240.63461 C 189.94585,235.98241 183.13776,225.31639 183.13776,225.31639 C 183.13776,225.31639 186.5418,234.39385 188.35729,236.32281 C 190.17279,238.25177 191.30747,240.63461 190.96706,241.42888 C 190.62666,242.22316 187.78995,241.76929 185.63406,239.38646 C 183.47816,237.00362 179.50677,232.69183 179.50677,232.69183 C 179.50677,232.69183 184.38591,239.27299 183.81856,239.72686 C 183.25122,240.18073 177.57781,236.32281 175.76232,233.03223 C 173.94683,229.74165 168.61382,223.5009 172.47174,211.24633 C 176.32966,198.99176 180.07411,194.33956 180.07411,194.33956 C 180.07411,194.33956 178.03168,205.57292 182.45695,213.28876 C 186.88221,221.0046 196.86741,225.6568 202.42736,226.45107 C 207.9873,227.24535 214.34152,226.56454 214.34152,226.56454 C 214.34152,226.56454 211.61829,231.67061 212.75297,237.4575 z"
         transform="translate(-154.35715,100.43361)"
         id="path3252"
         style="fill:#ffffff;fill-opacity:1;fill-rule:evenodd;stroke:none;stroke-width:1px;stroke-linecap:butt;stroke-linejoin:miter;stroke-opacity:1" />
      <path
         d="M 202.9947,218.28136 C 202.9947,218.28136 203.78898,211.58673 205.03713,210.79246 C 206.28528,209.99818 209.23545,209.09043 211.16441,211.13286 C 213.09337,213.17529 216.15702,215.21772 215.58967,218.39483 C 215.02233,221.57194 207.76037,224.29518 205.03713,223.5009 C 202.31389,222.70662 201.97348,222.70662 202.9947,218.28136 z"
         transform="translate(-154.35715,100.43361)"
         id="path3254"
         style="fill:#ffffff;fill-opacity:1;fill-rule:evenodd;stroke:none;stroke-width:1px;stroke-linecap:butt;stroke-linejoin:miter;stroke-opacity:1" />
      <path
         d="M 191.76134,219.07564 C 191.76134,219.07564 182.34348,210.33858 182.79735,202.62274 C 183.25122,194.9069 187.10914,186.39679 190.62666,181.40418 C 194.14417,176.41158 201.97349,170.28429 201.97349,170.28429 C 201.97349,170.28429 202.31389,175.6173 203.44858,177.31933 C 204.58326,179.02135 206.39875,182.99274 207.07956,183.67354 C 207.76037,184.35435 198.90984,190.36817 195.50579,198.42442 C 192.10175,206.48066 191.30747,210.90592 191.76134,219.07564 z"
         transform="translate(-154.35715,100.43361)"
         id="path3256"
         style="fill:#ffffff;fill-opacity:1;fill-rule:evenodd;stroke:none;stroke-width:1px;stroke-linecap:butt;stroke-linejoin:miter;stroke-opacity:1" />
      <path
         d="M 319.84899,142.35727 C 319.84899,142.35727 325.13003,136.84887 332.79558,133.97606 C 333.49745,133.71302 335.79374,132.54512 336.88398,135.81584 C 337.97422,139.08656 338.8451,142.42177 338.1105,145.90055 C 337.57091,148.45584 337.7396,148.65831 332.72744,148.96685 C 329.25676,149.1805 325.89013,148.52448 322.64273,147.33149 C 326.66299,146.65009 332.31314,147.25971 333.81768,146.78637 C 333.45815,144.21497 332.06835,140.72189 332.79558,138.1326 C 331.50092,137.72376 321.19393,144.03635 319.84899,142.35727 z"
         transform="translate(-154.35715,100.43361)"
         id="path3258"
         style="fill:#ffffff;fill-opacity:1;fill-rule:evenodd;stroke:none;stroke-width:1px;stroke-linecap:butt;stroke-linejoin:miter;stroke-opacity:1" />
      <path
         d="M 165.59691,52.004914 C 165.59691,52.004914 153.56359,55.613799 152.539,60.395229 C 151.51441,65.17666 153.34313,65.357058 154.57682,66.394761 C 156.30028,67.844428 161.61235,71.03958 162.1588,70.766355 C 162.70525,70.49313 161.4004,65.04948 161.68065,61.886556 C 162.1588,56.49037 164.70893,52.414751 165.59691,52.004914 z"
         transform="translate(-154.35715,100.43361)"
         id="path3260"
         style="opacity:1;fill:#ffffff;fill-opacity:1;fill-rule:evenodd;stroke:none;stroke-width:1px;stroke-linecap:butt;stroke-linejoin:miter;marker:none;marker-start:none;marker-mid:none;marker-end:none;stroke-miterlimit:4;stroke-dasharray:none;stroke-dashoffset:0;stroke-opacity:1;visibility:visible;display:inline;overflow:visible;enable-background:accumulate" />
      <path
         d="M 305.2462,93.046546 L 287.05438,94.301154 L 322.68525,73.9765 L 332.59666,81.253228 L 320.80334,91.039173 L 336.36048,87.902652 L 339.24608,92.042859 L 327.70369,98.943205 L 341.37892,99.319587 L 342.63352,107.22362 L 333.22396,110.4856 C 333.22396,110.4856 341.25346,112.61844 342.88445,115.37857 C 344.51544,118.13871 345.01728,119.39332 345.01728,119.39332 C 345.01728,119.39332 324.69263,121.02431 317.91774,123.15714 C 311.14286,125.28998 275.26106,137.45968 275.26106,137.45968 C 275.26106,137.45968 272.8773,126.67005 261.83675,125.91728 C 250.7962,125.16452 244.52316,129.93203 243.89585,133.06855 C 243.26855,136.20507 244.14677,145.11279 246.53053,150.00576 C 248.91428,154.89873 254.43456,159.91717 256.69286,161.17178 C 258.95115,162.42638 264.84781,165.31198 264.84781,167.1939 C 264.84781,169.07581 268.48617,178.35991 272.50092,181.99827 C 276.51567,185.63664 281.28318,187.51855 283.7924,187.51855 C 282.66325,190.78053 280.27949,192.28606 277.64481,191.90968 C 271.65097,191.05343 264.59689,184.13111 263.34228,179.9909 C 262.08767,175.85069 257.61852,166.86255 254.68548,165.18652 C 252.92903,164.18283 245.90323,161.29723 245.025,159.41532 C 244.14678,157.53341 241.38664,151.76221 239.50472,151.38583 C 237.62281,151.00945 225.07673,152.01314 220.93652,154.89873 C 216.79631,157.78433 201.74101,166.19021 201.74101,166.19021 C 201.74101,166.19021 199.2318,166.31567 199.2318,164.3083 C 199.2318,162.30092 211.65242,152.1386 211.65242,152.1386 C 211.65242,152.1386 244.77408,117.76233 247.03237,116.8841 C 249.29067,116.00588 251.09838,114.32844 257.822,113.49666 C 263.85103,112.7508 265.47511,113.26945 265.47511,113.26945 L 251.53216,108.10875 C 251.53216,108.10875 265.93644,103.61587 278.89942,102.07973 C 290.9234,100.65486 300.47869,99.69597 300.47869,99.69597 C 300.47869,99.69597 304.86981,96.433988 305.2462,93.046546 z"
         transform="translate(-154.35715,100.43361)"
         id="path3262"
         style="opacity:1;fill:#ffffff;fill-opacity:1;fill-rule:evenodd;stroke:none;stroke-width:1px;stroke-linecap:butt;stroke-linejoin:miter;marker:none;marker-start:none;marker-mid:none;marker-end:none;stroke-miterlimit:4;stroke-dasharray:none;stroke-dashoffset:0;stroke-opacity:1;visibility:visible;display:inline;overflow:visible;enable-background:accumulate" />
      <path
         d="M 198.54696,158.34807 L 199.29282,148.8011 C 199.29282,148.8011 210.33149,127.76796 219.72928,123.74033 C 229.12707,119.71271 247.02762,109.41988 247.02762,109.41988 L 198.54696,158.34807 z"
         transform="translate(-154.35715,100.43361)"
         id="path3264"
         style="opacity:1;fill:#ffffff;fill-opacity:1;fill-rule:evenodd;stroke:none;stroke-width:1px;stroke-linecap:butt;stroke-linejoin:miter;marker:none;marker-start:none;marker-mid:none;marker-end:none;stroke-miterlimit:4;stroke-dasharray:none;stroke-dashoffset:0;stroke-opacity:1;visibility:visible;display:inline;overflow:visible;enable-background:accumulate" />
      <path
         d="M 258.81215,133.43646 C 258.81215,133.43646 254.14544,131.8448 252.24862,136.27072 C 250.90608,139.40332 250.90608,142.83426 252.24862,145.07182 C 254.1065,148.16828 256.57458,148.20442 258.51381,147.30939 C 256.12707,145.6685 254.63536,142.83426 254.9337,139.85083 C 255.23204,136.86741 256.42541,134.62983 258.81215,133.43646 z"
         transform="translate(-154.35715,100.43361)"
         id="path3266"
         style="fill:#ffffff;fill-opacity:1;fill-rule:evenodd;stroke:none;stroke-width:1px;stroke-linecap:butt;stroke-linejoin:miter;stroke-opacity:1" />
      <path
         d="M 271.93923,168.79006 C 271.93923,168.79006 272.23757,174.01105 276.86188,173.86188 C 281.48619,173.71271 281.33702,171.47514 281.63536,169.53591 C 278.8011,171.92266 279.55193,171.02764 277.30939,171.02763 C 275.81768,171.02762 274.02762,171.32596 271.93923,168.79006 z"
         transform="translate(-154.35715,100.43361)"
         id="path3268"
         style="fill:#ffffff;fill-opacity:1;fill-rule:evenodd;stroke:none;stroke-width:1px;stroke-linecap:butt;stroke-linejoin:miter;stroke-opacity:1" />
    </g>
    <g
       transform="translate(617.57629,420.46641)"
       id="g3270">
      <path
         d="M 170.80379,48.707771 C 170.2261,47.937517 155.20615,47.167263 148.27386,60.839269 C 141.34158,74.511274 146.54079,101.66272 148.85155,107.82475 C 151.16231,113.98678 160.39267,134.8061 179.46914,145.56719 C 186.97911,149.80359 190.83039,151.72922 190.83039,151.72922 C 190.83039,151.72922 195.25935,159.04663 195.45191,162.8979 C 195.64447,166.74917 194.68166,171.75582 188.71219,179.2658 C 182.74272,186.77577 183.32041,184.27245 178.50633,191.01217 C 173.69224,197.75189 169.07072,201.98828 168.30046,213.92722 C 167.53021,225.86615 170.80379,233.95382 180.62452,241.65636 C 190.44526,249.35889 218.75209,248.7812 218.75209,246.47044 C 218.75209,244.15968 215.28595,236.84227 215.28595,234.53151 C 215.28595,232.22075 218.94465,215.66029 217.21158,213.34953 C 215.47851,211.03877 211.04955,205.83955 204.88752,206.22468 C 201.94078,207.75813 198.91805,222.78514 198.91805,222.78514 C 198.91805,222.78514 194.87422,223.17026 196.22216,212.57927 C 197.57011,201.98828 201.03625,196.01882 204.69496,193.13036 C 208.35366,190.24191 209.89417,188.31628 209.89417,188.31628 C 209.89417,188.31628 219.52234,199.87009 219.32978,210.46108 C 219.13721,221.05207 216.24876,238.38278 216.24876,238.38278 L 219.13721,245.50762 C 219.13721,245.50762 238.97125,246.85557 250.52506,258.60194 C 262.07887,270.34831 279.21701,283.82775 282.49059,285.56082 C 285.76417,287.29389 293.08158,291.14516 301.36181,290.37491 C 309.64204,289.60466 319.65534,285.56082 319.65534,285.56082 C 319.65534,285.56082 315.03382,275.1624 315.80407,269.57806 C 316.57432,263.99372 320.04047,255.52092 319.07765,252.43991 C 318.11483,249.35889 315.03382,239.53816 315.03382,239.53816 C 315.03382,239.53816 343.34064,240.50097 348.92498,237.61252 C 354.50933,234.72407 359.32341,231.83562 359.9011,222.9777 C 360.47879,214.11978 353.93163,214.11978 352.96882,210.46108 C 352.006,206.80237 358.55316,200.44778 358.36059,198.13701 C 358.16803,195.82625 358.55316,194.09318 356.82009,193.51549 C 355.08702,192.9378 354.1242,191.58986 354.1242,191.58986 C 354.1242,191.58986 358.16803,188.12371 358.16803,186.39064 C 358.16803,184.65757 352.006,179.45836 353.16138,177.72529 C 354.31676,175.99222 369.14415,174.25915 370.68466,173.29633 C 372.22516,172.33351 372.80285,170.21531 371.64747,167.51942 C 370.49209,164.82354 351.04318,138.24978 351.04318,138.24978 C 351.04318,138.24978 350.65806,116.49011 349.11755,110.7132 C 347.57704,104.9363 335.44554,70.467442 308.87179,57.56569 C 282.29803,44.663938 249.56224,55.640055 243.9779,57.56569 C 238.39356,59.491325 196.19414,71.951092 188.51962,101.85529 C 182.93529,123.61495 187.36424,136.90183 187.36424,136.90183 C 187.36424,136.90183 176.38813,130.7398 172.72942,121.30419 C 169.07072,111.86859 166.18226,106.47681 167.14508,101.47016 C 168.1079,96.463508 173.49967,77.399726 180.81708,73.741021 C 171.7666,73.355894 166.95252,72.778203 166.95252,72.778203 C 166.95252,72.778203 163.48638,53.329294 170.80379,48.707771 z"
         transform="translate(-154.35715,100.43361)"
         id="path3272"
         style="fill:#000000;fill-opacity:1;fill-rule:evenodd;stroke:none;stroke-width:1px;stroke-linecap:butt;stroke-linejoin:miter;stroke-opacity:1" />
      <path
         d="M 164.35175,110.33333 C 164.35175,110.33333 162.60674,125.24473 168.50829,131.90239 C 175.59354,139.89539 187.0442,147.18048 188.61694,147.85451 C 190.18969,148.52855 187.71823,142.23757 187.71823,142.23757 C 187.71823,142.23757 171.99531,132.34837 164.35175,110.33333 z"
         transform="translate(-154.35715,100.43361)"
         id="path3274"
         style="fill:#ffffff;fill-opacity:1;fill-rule:evenodd;stroke:none;stroke-width:1px;stroke-linecap:butt;stroke-linejoin:miter;stroke-opacity:1" />
      <path
         d="M 161.65562,124.93738 C 161.65562,124.93738 151.43278,107.52486 149.41068,96.403315 C 147.38858,85.281768 147.61326,71.688767 150.08471,67.869245 C 152.10681,70.902394 151.32044,82.13628 151.32044,82.13628 C 151.32044,82.13628 152.66851,72.587477 152.66851,71.688766 C 152.66851,71.333526 155.36464,73.823205 155.58932,80.001842 C 155.81399,86.180479 158.51013,93.145488 158.51013,93.145488 C 158.51013,93.145488 156.26335,74.834254 156.93738,73.598527 C 157.61142,72.362799 159.40884,77.867403 171.99079,77.642726 C 165.25046,89.101289 162.55433,98.762431 161.99263,104.04236 C 161.43094,109.32228 161.65562,125.04972 161.65562,124.93738 z"
         transform="translate(-154.35715,100.43361)"
         id="path3276"
         style="fill:#ffffff;fill-opacity:1;fill-rule:evenodd;stroke:none;stroke-width:1px;stroke-linecap:butt;stroke-linejoin:miter;stroke-opacity:1" />
      <path
         d="M 212.75297,237.4575 C 213.54725,240.06726 215.70314,242.56357 215.02233,243.69825 C 214.34152,244.83293 206.73915,246.19455 205.26406,244.26559 C 203.78898,242.33663 195.61926,233.03223 195.61926,233.03223 C 195.61926,233.03223 200.95227,244.37906 200.15799,244.15212 C 199.36371,243.92519 198.56944,245.2868 194.25764,240.63461 C 189.94585,235.98241 183.13776,225.31639 183.13776,225.31639 C 183.13776,225.31639 186.5418,234.39385 188.35729,236.32281 C 190.17279,238.25177 191.30747,240.63461 190.96706,241.42888 C 190.62666,242.22316 187.78995,241.76929 185.63406,239.38646 C 183.47816,237.00362 179.50677,232.69183 179.50677,232.69183 C 179.50677,232.69183 184.38591,239.27299 183.81856,239.72686 C 183.25122,240.18073 177.57781,236.32281 175.76232,233.03223 C 173.94683,229.74165 168.61382,223.5009 172.47174,211.24633 C 176.32966,198.99176 180.07411,194.33956 180.07411,194.33956 C 180.07411,194.33956 178.03168,205.57292 182.45695,213.28876 C 186.88221,221.0046 196.86741,225.6568 202.42736,226.45107 C 207.9873,227.24535 214.34152,226.56454 214.34152,226.56454 C 214.34152,226.56454 211.61829,231.67061 212.75297,237.4575 z"
         transform="translate(-154.35715,100.43361)"
         id="path3278"
         style="fill:#ffffff;fill-opacity:1;fill-rule:evenodd;stroke:none;stroke-width:1px;stroke-linecap:butt;stroke-linejoin:miter;stroke-opacity:1" />
      <path
         d="M 202.9947,218.28136 C 202.9947,218.28136 203.78898,211.58673 205.03713,210.79246 C 206.28528,209.99818 209.23545,209.09043 211.16441,211.13286 C 213.09337,213.17529 216.15702,215.21772 215.58967,218.39483 C 215.02233,221.57194 207.76037,224.29518 205.03713,223.5009 C 202.31389,222.70662 201.97348,222.70662 202.9947,218.28136 z"
         transform="translate(-154.35715,100.43361)"
         id="path3280"
         style="fill:#ffffff;fill-opacity:1;fill-rule:evenodd;stroke:none;stroke-width:1px;stroke-linecap:butt;stroke-linejoin:miter;stroke-opacity:1" />
      <path
         d="M 191.76134,219.07564 C 191.76134,219.07564 182.34348,210.33858 182.79735,202.62274 C 183.25122,194.9069 187.10914,186.39679 190.62666,181.40418 C 194.14417,176.41158 201.97349,170.28429 201.97349,170.28429 C 201.97349,170.28429 202.31389,175.6173 203.44858,177.31933 C 204.58326,179.02135 206.39875,182.99274 207.07956,183.67354 C 207.76037,184.35435 198.90984,190.36817 195.50579,198.42442 C 192.10175,206.48066 191.30747,210.90592 191.76134,219.07564 z"
         transform="translate(-154.35715,100.43361)"
         id="path3282"
         style="fill:#ffffff;fill-opacity:1;fill-rule:evenodd;stroke:none;stroke-width:1px;stroke-linecap:butt;stroke-linejoin:miter;stroke-opacity:1" />
      <path
         d="M 319.84899,142.35727 C 319.84899,142.35727 325.13003,136.84887 332.79558,133.97606 C 333.49745,133.71302 335.79374,132.54512 336.88398,135.81584 C 337.97422,139.08656 338.8451,142.42177 338.1105,145.90055 C 337.57091,148.45584 337.7396,148.65831 332.72744,148.96685 C 329.25676,149.1805 325.89013,148.52448 322.64273,147.33149 C 326.66299,146.65009 332.31314,147.25971 333.81768,146.78637 C 333.45815,144.21497 332.06835,140.72189 332.79558,138.1326 C 331.50092,137.72376 321.19393,144.03635 319.84899,142.35727 z"
         transform="translate(-154.35715,100.43361)"
         id="path3284"
         style="fill:#ffffff;fill-opacity:1;fill-rule:evenodd;stroke:none;stroke-width:1px;stroke-linecap:butt;stroke-linejoin:miter;stroke-opacity:1" />
      <path
         d="M 165.59691,52.004914 C 165.59691,52.004914 153.56359,55.613799 152.539,60.395229 C 151.51441,65.17666 153.34313,65.357058 154.57682,66.394761 C 156.30028,67.844428 161.61235,71.03958 162.1588,70.766355 C 162.70525,70.49313 161.4004,65.04948 161.68065,61.886556 C 162.1588,56.49037 164.70893,52.414751 165.59691,52.004914 z"
         transform="translate(-154.35715,100.43361)"
         id="path3286"
         style="opacity:1;fill:#ffffff;fill-opacity:1;fill-rule:evenodd;stroke:none;stroke-width:1px;stroke-linecap:butt;stroke-linejoin:miter;marker:none;marker-start:none;marker-mid:none;marker-end:none;stroke-miterlimit:4;stroke-dasharray:none;stroke-dashoffset:0;stroke-opacity:1;visibility:visible;display:inline;overflow:visible;enable-background:accumulate" />
      <path
         d="M 305.2462,93.046546 L 287.05438,94.301154 L 322.68525,73.9765 L 332.59666,81.253228 L 320.80334,91.039173 L 336.36048,87.902652 L 339.24608,92.042859 L 327.70369,98.943205 L 341.37892,99.319587 L 342.63352,107.22362 L 333.22396,110.4856 C 333.22396,110.4856 341.25346,112.61844 342.88445,115.37857 C 344.51544,118.13871 345.01728,119.39332 345.01728,119.39332 C 345.01728,119.39332 324.69263,121.02431 317.91774,123.15714 C 311.14286,125.28998 275.26106,137.45968 275.26106,137.45968 C 275.26106,137.45968 272.8773,126.67005 261.83675,125.91728 C 250.7962,125.16452 244.52316,129.93203 243.89585,133.06855 C 243.26855,136.20507 244.14677,145.11279 246.53053,150.00576 C 248.91428,154.89873 254.43456,159.91717 256.69286,161.17178 C 258.95115,162.42638 264.84781,165.31198 264.84781,167.1939 C 264.84781,169.07581 268.48617,178.35991 272.50092,181.99827 C 276.51567,185.63664 281.28318,187.51855 283.7924,187.51855 C 282.66325,190.78053 280.27949,192.28606 277.64481,191.90968 C 271.65097,191.05343 264.59689,184.13111 263.34228,179.9909 C 262.08767,175.85069 257.61852,166.86255 254.68548,165.18652 C 252.92903,164.18283 245.90323,161.29723 245.025,159.41532 C 244.14678,157.53341 241.38664,151.76221 239.50472,151.38583 C 237.62281,151.00945 225.07673,152.01314 220.93652,154.89873 C 216.79631,157.78433 201.74101,166.19021 201.74101,166.19021 C 201.74101,166.19021 199.2318,166.31567 199.2318,164.3083 C 199.2318,162.30092 211.65242,152.1386 211.65242,152.1386 C 211.65242,152.1386 244.77408,117.76233 247.03237,116.8841 C 249.29067,116.00588 251.09838,114.32844 257.822,113.49666 C 263.85103,112.7508 265.47511,113.26945 265.47511,113.26945 L 251.53216,108.10875 C 251.53216,108.10875 265.93644,103.61587 278.89942,102.07973 C 290.9234,100.65486 300.47869,99.69597 300.47869,99.69597 C 300.47869,99.69597 304.86981,96.433988 305.2462,93.046546 z"
         transform="translate(-154.35715,100.43361)"
         id="path3288"
         style="opacity:1;fill:#ffffff;fill-opacity:1;fill-rule:evenodd;stroke:none;stroke-width:1px;stroke-linecap:butt;stroke-linejoin:miter;marker:none;marker-start:none;marker-mid:none;marker-end:none;stroke-miterlimit:4;stroke-dasharray:none;stroke-dashoffset:0;stroke-opacity:1;visibility:visible;display:inline;overflow:visible;enable-background:accumulate" />
      <path
         d="M 198.54696,158.34807 L 199.29282,148.8011 C 199.29282,148.8011 210.33149,127.76796 219.72928,123.74033 C 229.12707,119.71271 247.02762,109.41988 247.02762,109.41988 L 198.54696,158.34807 z"
         transform="translate(-154.35715,100.43361)"
         id="path3290"
         style="opacity:1;fill:#ffffff;fill-opacity:1;fill-rule:evenodd;stroke:none;stroke-width:1px;stroke-linecap:butt;stroke-linejoin:miter;marker:none;marker-start:none;marker-mid:none;marker-end:none;stroke-miterlimit:4;stroke-dasharray:none;stroke-dashoffset:0;stroke-opacity:1;visibility:visible;display:inline;overflow:visible;enable-background:accumulate" />
      <path
         d="M 258.81215,133.43646 C 258.81215,133.43646 254.14544,131.8448 252.24862,136.27072 C 250.90608,139.40332 250.90608,142.83426 252.24862,145.07182 C 254.1065,148.16828 256.57458,148.20442 258.51381,147.30939 C 256.12707,145.6685 254.63536,142.83426 254.9337,139.85083 C 255.23204,136.86741 256.42541,134.62983 258.81215,133.43646 z"
         transform="translate(-154.35715,100.43361)"
         id="path3292"
         style="fill:#ffffff;fill-opacity:1;fill-rule:evenodd;stroke:none;stroke-width:1px;stroke-linecap:butt;stroke-linejoin:miter;stroke-opacity:1" />
      <path
         d="M 271.93923,168.79006 C 271.93923,168.79006 272.23757,174.01105 276.86188,173.86188 C 281.48619,173.71271 281.33702,171.47514 281.63536,169.53591 C 278.8011,171.92266 279.55193,171.02764 277.30939,171.02763 C 275.81768,171.02762 274.02762,171.32596 271.93923,168.79006 z"
         transform="translate(-154.35715,100.43361)"
         id="path3294"
         style="fill:#ffffff;fill-opacity:1;fill-rule:evenodd;stroke:none;stroke-width:1px;stroke-linecap:butt;stroke-linejoin:miter;stroke-opacity:1" />
    </g>
    <g
       transform="translate(-0.2175228,420.46641)"
       id="g3296">
      <path
         d="M 170.80379,48.707771 C 170.2261,47.937517 155.20615,47.167263 148.27386,60.839269 C 141.34158,74.511274 146.54079,101.66272 148.85155,107.82475 C 151.16231,113.98678 160.39267,134.8061 179.46914,145.56719 C 186.97911,149.80359 190.83039,151.72922 190.83039,151.72922 C 190.83039,151.72922 195.25935,159.04663 195.45191,162.8979 C 195.64447,166.74917 194.68166,171.75582 188.71219,179.2658 C 182.74272,186.77577 183.32041,184.27245 178.50633,191.01217 C 173.69224,197.75189 169.07072,201.98828 168.30046,213.92722 C 167.53021,225.86615 170.80379,233.95382 180.62452,241.65636 C 190.44526,249.35889 218.75209,248.7812 218.75209,246.47044 C 218.75209,244.15968 215.28595,236.84227 215.28595,234.53151 C 215.28595,232.22075 218.94465,215.66029 217.21158,213.34953 C 215.47851,211.03877 211.04955,205.83955 204.88752,206.22468 C 201.94078,207.75813 198.91805,222.78514 198.91805,222.78514 C 198.91805,222.78514 194.87422,223.17026 196.22216,212.57927 C 197.57011,201.98828 201.03625,196.01882 204.69496,193.13036 C 208.35366,190.24191 209.89417,188.31628 209.89417,188.31628 C 209.89417,188.31628 219.52234,199.87009 219.32978,210.46108 C 219.13721,221.05207 216.24876,238.38278 216.24876,238.38278 L 219.13721,245.50762 C 219.13721,245.50762 238.97125,246.85557 250.52506,258.60194 C 262.07887,270.34831 279.21701,283.82775 282.49059,285.56082 C 285.76417,287.29389 293.08158,291.14516 301.36181,290.37491 C 309.64204,289.60466 319.65534,285.56082 319.65534,285.56082 C 319.65534,285.56082 315.03382,275.1624 315.80407,269.57806 C 316.57432,263.99372 320.04047,255.52092 319.07765,252.43991 C 318.11483,249.35889 315.03382,239.53816 315.03382,239.53816 C 315.03382,239.53816 343.34064,240.50097 348.92498,237.61252 C 354.50933,234.72407 359.32341,231.83562 359.9011,222.9777 C 360.47879,214.11978 353.93163,214.11978 352.96882,210.46108 C 352.006,206.80237 358.55316,200.44778 358.36059,198.13701 C 358.16803,195.82625 358.55316,194.09318 356.82009,193.51549 C 355.08702,192.9378 354.1242,191.58986 354.1242,191.58986 C 354.1242,191.58986 358.16803,188.12371 358.16803,186.39064 C 358.16803,184.65757 352.006,179.45836 353.16138,177.72529 C 354.31676,175.99222 369.14415,174.25915 370.68466,173.29633 C 372.22516,172.33351 372.80285,170.21531 371.64747,167.51942 C 370.49209,164.82354 351.04318,138.24978 351.04318,138.24978 C 351.04318,138.24978 350.65806,116.49011 349.11755,110.7132 C 347.57704,104.9363 335.44554,70.467442 308.87179,57.56569 C 282.29803,44.663938 249.56224,55.640055 243.9779,57.56569 C 238.39356,59.491325 196.19414,71.951092 188.51962,101.85529 C 182.93529,123.61495 187.36424,136.90183 187.36424,136.90183 C 187.36424,136.90183 176.38813,130.7398 172.72942,121.30419 C 169.07072,111.86859 166.18226,106.47681 167.14508,101.47016 C 168.1079,96.463508 173.49967,77.399726 180.81708,73.741021 C 171.7666,73.355894 166.95252,72.778203 166.95252,72.778203 C 166.95252,72.778203 163.48638,53.329294 170.80379,48.707771 z"
         transform="translate(-154.35715,100.43361)"
         id="path3298"
         style="fill:#000000;fill-opacity:1;fill-rule:evenodd;stroke:none;stroke-width:1px;stroke-linecap:butt;stroke-linejoin:miter;stroke-opacity:1" />
      <path
         d="M 164.35175,110.33333 C 164.35175,110.33333 162.60674,125.24473 168.50829,131.90239 C 175.59354,139.89539 187.0442,147.18048 188.61694,147.85451 C 190.18969,148.52855 187.71823,142.23757 187.71823,142.23757 C 187.71823,142.23757 171.99531,132.34837 164.35175,110.33333 z"
         transform="translate(-154.35715,100.43361)"
         id="path3300"
         style="fill:#ffffff;fill-opacity:1;fill-rule:evenodd;stroke:none;stroke-width:1px;stroke-linecap:butt;stroke-linejoin:miter;stroke-opacity:1" />
      <path
         d="M 161.65562,124.93738 C 161.65562,124.93738 151.43278,107.52486 149.41068,96.403315 C 147.38858,85.281768 147.61326,71.688767 150.08471,67.869245 C 152.10681,70.902394 151.32044,82.13628 151.32044,82.13628 C 151.32044,82.13628 152.66851,72.587477 152.66851,71.688766 C 152.66851,71.333526 155.36464,73.823205 155.58932,80.001842 C 155.81399,86.180479 158.51013,93.145488 158.51013,93.145488 C 158.51013,93.145488 156.26335,74.834254 156.93738,73.598527 C 157.61142,72.362799 159.40884,77.867403 171.99079,77.642726 C 165.25046,89.101289 162.55433,98.762431 161.99263,104.04236 C 161.43094,109.32228 161.65562,125.04972 161.65562,124.93738 z"
         transform="translate(-154.35715,100.43361)"
         id="path3302"
         style="fill:#ffffff;fill-opacity:1;fill-rule:evenodd;stroke:none;stroke-width:1px;stroke-linecap:butt;stroke-linejoin:miter;stroke-opacity:1" />
      <path
         d="M 212.75297,237.4575 C 213.54725,240.06726 215.70314,242.56357 215.02233,243.69825 C 214.34152,244.83293 206.73915,246.19455 205.26406,244.26559 C 203.78898,242.33663 195.61926,233.03223 195.61926,233.03223 C 195.61926,233.03223 200.95227,244.37906 200.15799,244.15212 C 199.36371,243.92519 198.56944,245.2868 194.25764,240.63461 C 189.94585,235.98241 183.13776,225.31639 183.13776,225.31639 C 183.13776,225.31639 186.5418,234.39385 188.35729,236.32281 C 190.17279,238.25177 191.30747,240.63461 190.96706,241.42888 C 190.62666,242.22316 187.78995,241.76929 185.63406,239.38646 C 183.47816,237.00362 179.50677,232.69183 179.50677,232.69183 C 179.50677,232.69183 184.38591,239.27299 183.81856,239.72686 C 183.25122,240.18073 177.57781,236.32281 175.76232,233.03223 C 173.94683,229.74165 168.61382,223.5009 172.47174,211.24633 C 176.32966,198.99176 180.07411,194.33956 180.07411,194.33956 C 180.07411,194.33956 178.03168,205.57292 182.45695,213.28876 C 186.88221,221.0046 196.86741,225.6568 202.42736,226.45107 C 207.9873,227.24535 214.34152,226.56454 214.34152,226.56454 C 214.34152,226.56454 211.61829,231.67061 212.75297,237.4575 z"
         transform="translate(-154.35715,100.43361)"
         id="path3304"
         style="fill:#ffffff;fill-opacity:1;fill-rule:evenodd;stroke:none;stroke-width:1px;stroke-linecap:butt;stroke-linejoin:miter;stroke-opacity:1" />
      <path
         d="M 202.9947,218.28136 C 202.9947,218.28136 203.78898,211.58673 205.03713,210.79246 C 206.28528,209.99818 209.23545,209.09043 211.16441,211.13286 C 213.09337,213.17529 216.15702,215.21772 215.58967,218.39483 C 215.02233,221.57194 207.76037,224.29518 205.03713,223.5009 C 202.31389,222.70662 201.97348,222.70662 202.9947,218.28136 z"
         transform="translate(-154.35715,100.43361)"
         id="path3306"
         style="fill:#ffffff;fill-opacity:1;fill-rule:evenodd;stroke:none;stroke-width:1px;stroke-linecap:butt;stroke-linejoin:miter;stroke-opacity:1" />
      <path
         d="M 191.76134,219.07564 C 191.76134,219.07564 182.34348,210.33858 182.79735,202.62274 C 183.25122,194.9069 187.10914,186.39679 190.62666,181.40418 C 194.14417,176.41158 201.97349,170.28429 201.97349,170.28429 C 201.97349,170.28429 202.31389,175.6173 203.44858,177.31933 C 204.58326,179.02135 206.39875,182.99274 207.07956,183.67354 C 207.76037,184.35435 198.90984,190.36817 195.50579,198.42442 C 192.10175,206.48066 191.30747,210.90592 191.76134,219.07564 z"
         transform="translate(-154.35715,100.43361)"
         id="path3308"
         style="fill:#ffffff;fill-opacity:1;fill-rule:evenodd;stroke:none;stroke-width:1px;stroke-linecap:butt;stroke-linejoin:miter;stroke-opacity:1" />
      <path
         d="M 319.84899,142.35727 C 319.84899,142.35727 325.13003,136.84887 332.79558,133.97606 C 333.49745,133.71302 335.79374,132.54512 336.88398,135.81584 C 337.97422,139.08656 338.8451,142.42177 338.1105,145.90055 C 337.57091,148.45584 337.7396,148.65831 332.72744,148.96685 C 329.25676,149.1805 325.89013,148.52448 322.64273,147.33149 C 326.66299,146.65009 332.31314,147.25971 333.81768,146.78637 C 333.45815,144.21497 332.06835,140.72189 332.79558,138.1326 C 331.50092,137.72376 321.19393,144.03635 319.84899,142.35727 z"
         transform="translate(-154.35715,100.43361)"
         id="path3310"
         style="fill:#ffffff;fill-opacity:1;fill-rule:evenodd;stroke:none;stroke-width:1px;stroke-linecap:butt;stroke-linejoin:miter;stroke-opacity:1" />
      <path
         d="M 165.59691,52.004914 C 165.59691,52.004914 153.56359,55.613799 152.539,60.395229 C 151.51441,65.17666 153.34313,65.357058 154.57682,66.394761 C 156.30028,67.844428 161.61235,71.03958 162.1588,70.766355 C 162.70525,70.49313 161.4004,65.04948 161.68065,61.886556 C 162.1588,56.49037 164.70893,52.414751 165.59691,52.004914 z"
         transform="translate(-154.35715,100.43361)"
         id="path3312"
         style="opacity:1;fill:#ffffff;fill-opacity:1;fill-rule:evenodd;stroke:none;stroke-width:1px;stroke-linecap:butt;stroke-linejoin:miter;marker:none;marker-start:none;marker-mid:none;marker-end:none;stroke-miterlimit:4;stroke-dasharray:none;stroke-dashoffset:0;stroke-opacity:1;visibility:visible;display:inline;overflow:visible;enable-background:accumulate" />
      <path
         d="M 305.2462,93.046546 L 287.05438,94.301154 L 322.68525,73.9765 L 332.59666,81.253228 L 320.80334,91.039173 L 336.36048,87.902652 L 339.24608,92.042859 L 327.70369,98.943205 L 341.37892,99.319587 L 342.63352,107.22362 L 333.22396,110.4856 C 333.22396,110.4856 341.25346,112.61844 342.88445,115.37857 C 344.51544,118.13871 345.01728,119.39332 345.01728,119.39332 C 345.01728,119.39332 324.69263,121.02431 317.91774,123.15714 C 311.14286,125.28998 275.26106,137.45968 275.26106,137.45968 C 275.26106,137.45968 272.8773,126.67005 261.83675,125.91728 C 250.7962,125.16452 244.52316,129.93203 243.89585,133.06855 C 243.26855,136.20507 244.14677,145.11279 246.53053,150.00576 C 248.91428,154.89873 254.43456,159.91717 256.69286,161.17178 C 258.95115,162.42638 264.84781,165.31198 264.84781,167.1939 C 264.84781,169.07581 268.48617,178.35991 272.50092,181.99827 C 276.51567,185.63664 281.28318,187.51855 283.7924,187.51855 C 282.66325,190.78053 280.27949,192.28606 277.64481,191.90968 C 271.65097,191.05343 264.59689,184.13111 263.34228,179.9909 C 262.08767,175.85069 257.61852,166.86255 254.68548,165.18652 C 252.92903,164.18283 245.90323,161.29723 245.025,159.41532 C 244.14678,157.53341 241.38664,151.76221 239.50472,151.38583 C 237.62281,151.00945 225.07673,152.01314 220.93652,154.89873 C 216.79631,157.78433 201.74101,166.19021 201.74101,166.19021 C 201.74101,166.19021 199.2318,166.31567 199.2318,164.3083 C 199.2318,162.30092 211.65242,152.1386 211.65242,152.1386 C 211.65242,152.1386 244.77408,117.76233 247.03237,116.8841 C 249.29067,116.00588 251.09838,114.32844 257.822,113.49666 C 263.85103,112.7508 265.47511,113.26945 265.47511,113.26945 L 251.53216,108.10875 C 251.53216,108.10875 265.93644,103.61587 278.89942,102.07973 C 290.9234,100.65486 300.47869,99.69597 300.47869,99.69597 C 300.47869,99.69597 304.86981,96.433988 305.2462,93.046546 z"
         transform="translate(-154.35715,100.43361)"
         id="path3314"
         style="opacity:1;fill:#ffffff;fill-opacity:1;fill-rule:evenodd;stroke:none;stroke-width:1px;stroke-linecap:butt;stroke-linejoin:miter;marker:none;marker-start:none;marker-mid:none;marker-end:none;stroke-miterlimit:4;stroke-dasharray:none;stroke-dashoffset:0;stroke-opacity:1;visibility:visible;display:inline;overflow:visible;enable-background:accumulate" />
      <path
         d="M 198.54696,158.34807 L 199.29282,148.8011 C 199.29282,148.8011 210.33149,127.76796 219.72928,123.74033 C 229.12707,119.71271 247.02762,109.41988 247.02762,109.41988 L 198.54696,158.34807 z"
         transform="translate(-154.35715,100.43361)"
         id="path3316"
         style="opacity:1;fill:#ffffff;fill-opacity:1;fill-rule:evenodd;stroke:none;stroke-width:1px;stroke-linecap:butt;stroke-linejoin:miter;marker:none;marker-start:none;marker-mid:none;marker-end:none;stroke-miterlimit:4;stroke-dasharray:none;stroke-dashoffset:0;stroke-opacity:1;visibility:visible;display:inline;overflow:visible;enable-background:accumulate" />
      <path
         d="M 258.81215,133.43646 C 258.81215,133.43646 254.14544,131.8448 252.24862,136.27072 C 250.90608,139.40332 250.90608,142.83426 252.24862,145.07182 C 254.1065,148.16828 256.57458,148.20442 258.51381,147.30939 C 256.12707,145.6685 254.63536,142.83426 254.9337,139.85083 C 255.23204,136.86741 256.42541,134.62983 258.81215,133.43646 z"
         transform="translate(-154.35715,100.43361)"
         id="path3318"
         style="fill:#ffffff;fill-opacity:1;fill-rule:evenodd;stroke:none;stroke-width:1px;stroke-linecap:butt;stroke-linejoin:miter;stroke-opacity:1" />
      <path
         d="M 271.93923,168.79006 C 271.93923,168.79006 272.23757,174.01105 276.86188,173.86188 C 281.48619,173.71271 281.33702,171.47514 281.63536,169.53591 C 278.8011,171.92266 279.55193,171.02764 277.30939,171.02763 C 275.81768,171.02762 274.02762,171.32596 271.93923,168.79006 z"
         transform="translate(-154.35715,100.43361)"
         id="path3320"
         style="fill:#ffffff;fill-opacity:1;fill-rule:evenodd;stroke:none;stroke-width:1px;stroke-linecap:butt;stroke-linejoin:miter;stroke-opacity:1" />
    </g>
    <path
       d="M 532.75,-7.6875 L 532.75,341.75 L -16.6875,341.75 L -16.6875,419.25 L 532.75,419.25 L 532.75,768.6875 L 610.25,768.6875 L 610.25,419.25 L 1159.6875,419.25 L 1159.6875,341.75 L 610.25,341.75 L 610.25,-7.6875 L 532.75,-7.6875 z"
       transform="translate(-154.35715,100.43361)"
       id="rect3322"
       style="opacity:1;fill:#d81921;fill-opacity:1;fill-rule:evenodd;stroke:none;stroke-width:1px;stroke-linecap:butt;stroke-linejoin:miter;marker:none;marker-start:none;marker-mid:none;marker-end:none;stroke-miterlimit:4;stroke-dasharray:none;stroke-dashoffset:0;stroke-opacity:1;visibility:visible;display:inline;overflow:visible;enable-background:accumulate" />
  </g>
</svg>
