<?xml version="1.0" encoding="UTF-8" standalone="no"?>
<svg
   xmlns:dc="http://purl.org/dc/elements/1.1/"
   xmlns:cc="http://creativecommons.org/ns#"
   xmlns:rdf="http://www.w3.org/1999/02/22-rdf-syntax-ns#"
   xmlns:svg="http://www.w3.org/2000/svg"
   xmlns="http://www.w3.org/2000/svg"
   xmlns:xlink="http://www.w3.org/1999/xlink"
   xmlns:sodipodi="http://sodipodi.sourceforge.net/DTD/sodipodi-0.dtd"
   xmlns:inkscape="http://www.inkscape.org/namespaces/inkscape"
   id="svg2"
   sodipodi:version="0.32"
   inkscape:version="0.48.1 "
   sodipodi:docname="ZZ1.svg"
   width="900"
   height="600"
   version="1.0">
  <metadata
     id="metadata33">
    <rdf:RDF>
      <cc:Work
         rdf:about="">
        <dc:format>image/svg+xml</dc:format>
        <dc:type
           rdf:resource="http://purl.org/dc/dcmitype/StillImage" />
      </cc:Work>
    </rdf:RDF>
  </metadata>
  <defs
     id="defs31" />
  <sodipodi:namedview
     inkscape:cy="106.03931"
     inkscape:cx="622.747"
     inkscape:zoom="0.62166667"
     inkscape:window-height="1004"
     inkscape:window-width="1280"
     inkscape:pageshadow="2"
     inkscape:pageopacity="0.0"
     borderopacity="1.0"
     bordercolor="#666666"
     pagecolor="#ffffff"
     id="base"
     inkscape:window-x="-8"
     inkscape:window-y="-8"
     inkscape:current-layer="svg2"
     showgrid="false"
     inkscape:window-maximized="1" />
  <rect
     style="opacity:1;fill:#ffffff;fill-opacity:1;fill-rule:evenodd;stroke:none;stroke-width:2;stroke-linecap:square;stroke-linejoin:bevel;stroke-miterlimit:4;stroke-dasharray:none;stroke-dashoffset:0.99999998;stroke-opacity:1"
     id="rect2557"
     width="900"
     height="300"
     x="0"
     y="1.9073486e-006" />
  <rect
     style="opacity:1;fill:#bf0a30;fill-opacity:1;fill-rule:evenodd;stroke:none;stroke-width:2;stroke-linecap:square;stroke-linejoin:bevel;stroke-miterlimit:4;stroke-dasharray:none;stroke-dashoffset:0.99999998000000001;stroke-opacity:1"
     id="rect1682"
     width="900"
     height="300"
     x="0"
     y="300" />
  <path
     style="fill:#002868;fill-opacity:1;stroke:none"
     sodipodi:nodetypes="cccccc"
     id="path2099"
     d="M 0.79408416,600 L 279.7662,600 C 279.7662,600 408.81935,298.67547 406.61289,300.09199 L 279.7662,0.18400418 L 0,-1.951217e-014 L 0.79408416,600 z " />
  <path
     transform="matrix(2.73982,0,0,2.756997,-14.03061,-19.13426)"
     d="M 100.91166 116.6445 A 40.490803 40.238525 0 1 1  19.930054,116.6445 A 40.490803 40.238525 0 1 1  100.91166 116.6445 z"
     sodipodi:ry="40.238525"
     sodipodi:rx="40.490803"
     sodipodi:cy="116.6445"
     sodipodi:cx="60.420856"
     id="path1679"
     style="fill:#f3e529;fill-opacity:1;stroke:none;stroke-width:0.37500000000000000;stroke-linecap:butt;stroke-linejoin:bevel;stroke-miterlimit:4;stroke-dasharray:none;stroke-opacity:1"
     sodipodi:type="arc" />
  <path
     style="fill:#000000;fill-opacity:1;stroke:none"
     id="path16"
     d="M 122.20017,255.45671 C 126.06147,258.7651 129.09534,263.452 129.09534,265.6576 C 129.09534,268.13889 132.12921,270.06879 135.99051,270.62019 C 139.8518,271.17159 145.64374,272.82579 149.22922,274.47999 C 153.91794,276.96129 156.12439,276.96129 158.60665,274.47999 C 160.5373,272.55009 165.50181,271.17159 169.91472,271.17159 C 177.3615,271.17159 177.91311,271.99869 176.80989,279.16689 C 175.98247,285.23228 177.3615,288.26498 183.42924,293.22757 C 187.56634,296.53597 191.15183,301.22287 191.15183,303.42846 C 191.15183,306.46116 189.49699,305.63406 185.9115,301.22287 C 181.22279,295.43317 180.94699,295.43317 181.22279,300.12007 C 181.4986,303.15276 183.42924,308.94246 185.6357,313.07795 C 188.39376,319.14334 188.66957,321.34894 185.6357,324.93304 C 182.05021,329.34423 167.70827,330.99843 170.19053,326.58724 C 171.01795,325.20874 166.60504,324.38164 159.98568,324.93304 C 152.81471,325.20874 145.36793,323.83024 140.1276,320.79754 C 135.7147,318.04055 127.16469,315.00785 121.37275,314.18075 C 115.58082,313.07795 110.06468,310.32095 109.23726,308.11536 C 108.40984,306.18546 106.20339,304.25556 103.99694,304.25556 C 101.79049,304.25556 92.964674,298.74157 84.414668,292.12478 C 75.864662,285.23228 67.590463,280.54539 66.487238,281.37249 C 63.453364,283.02669 62.901752,282.75099 81.104989,295.98457 C 89.10338,302.04996 97.101773,307.01256 99.032419,307.01256 C 100.96307,307.01256 104.27274,309.21816 106.20339,311.69945 C 110.8921,318.04055 132.12921,327.41433 149.78084,330.99843 C 153.64213,331.82553 166.32923,337.33952 178.18892,343.12922 C 190.0486,348.91891 200.80506,353.8815 201.63248,353.8815 C 202.73571,353.8815 203.83894,344.23201 204.11474,332.65263 C 204.66636,315.55925 203.83894,309.76956 199.42603,302.60136 C 196.39216,297.91447 191.97925,293.22757 190.0486,292.40048 C 187.56634,291.29768 186.73892,288.54068 187.56634,285.23228 C 190.0486,275.58278 186.18731,265.9333 179.01634,264.0034 C 175.43085,263.1763 167.98407,264.5548 162.46794,266.7604 L 152.2631,271.17159 L 137.36954,260.1436 C 121.64856,248.56422 110.6163,244.98012 122.20017,255.45671 z " />
  <path
     sodipodi:type="star"
     style="fill:#000080;fill-opacity:1;stroke:none;stroke-width:0.37500000000000000;stroke-linecap:butt;stroke-linejoin:bevel;stroke-miterlimit:4;stroke-dasharray:none;stroke-opacity:1"
     id="path2101"
     sodipodi:sides="5"
     sodipodi:cx="51.212666"
     sodipodi:cy="42.600571"
     sodipodi:r1="12.86871"
     sodipodi:r2="4.8527102"
     sodipodi:arg1="1.551191"
     sodipodi:arg2="2.1795095"
     inkscape:flatsided="false"
     inkscape:rounded="0"
     inkscape:randomized="0"
     d="M 51.464945,55.466807 L 48.437826,46.581659 L 39.054106,46.816388 L 46.568953,41.191766 L 43.445983,32.339853 L 51.117533,37.748793 L 58.571152,32.043281 L 55.797583,41.010812 L 63.527142,46.336525 L 54.141433,46.469823 L 51.464945,55.466807 z "
     transform="matrix(2.758066,0,0,2.756997,0.870406,1.036178)" />
  <path
     sodipodi:type="star"
     style="fill:#000080;fill-opacity:1;stroke:none;stroke-width:0.37500000000000000;stroke-linecap:butt;stroke-linejoin:bevel;stroke-miterlimit:4;stroke-dasharray:none;stroke-opacity:1"
     id="path2103"
     sodipodi:sides="5"
     sodipodi:cx="50.708111"
     sodipodi:cy="53.700851"
     sodipodi:r1="3.279629"
     sodipodi:r2="1.2367276"
     sodipodi:arg1="-1.5707963"
     sodipodi:arg2="-0.9424778"
     inkscape:flatsided="false"
     inkscape:rounded="0"
     inkscape:randomized="0"
     d="M 50.708111,50.421222 L 51.435041,52.700318 L 53.827223,52.68739 L 51.884309,54.083021 L 52.635828,56.354127 L 50.708111,54.937579 L 48.780393,56.354127 L 49.531913,54.083021 L 47.588998,52.68739 L 49.981181,52.700318 L 50.708111,50.421222 z "
     transform="matrix(2.758066,0,0,2.756997,0.870406,1.036178)" />
  <g
     id="g3498"
     transform="translate(0,-1.843216)"
     style="stroke:none">
    <path
       id="text3440"
       d="M 105.51438,240.109 L 87.85354,220.36021 L 92.539683,217.82878 L 104.37069,231.55649 L 100.10247,213.74339 L 105.54644,210.80258 L 118.07624,224.49245 L 113.00096,206.77567 L 117.60977,204.28601 L 124.35175,229.93313 L 119.49548,232.55646 L 105.82285,218.04546 L 110.47891,237.42718 L 105.51438,240.109 M 156.30969,224.82041 L 150.68047,225.41132 L 147.83166,219.82469 L 137.58717,220.90007 L 136.08294,226.94365 L 130.59357,227.51988 L 137.88553,200.84331 L 143.35742,200.26891 L 156.30969,224.82041 M 145.71759,215.68095 L 141.1879,206.5414 L 138.72476,216.415 L 145.71759,215.68095 M 159.40261,225.43559 L 165.4249,200.37964 L 170.48395,201.5956 L 167.80966,212.72208 L 180.70459,204.05217 L 187.50696,205.68714 L 175.72686,213.17871 L 181.9974,230.86634 L 175.45141,229.29298 L 171.38987,215.8786 L 166.28149,219.08007 L 164.46165,226.65155 L 159.40261,225.43559 M 184.4195,232.5569 L 198.05849,210.69261 L 214.27027,220.80556 L 211.96299,224.50429 L 200.16583,217.14519 L 197.14218,221.99232 L 208.11906,228.83972 L 205.82109,232.52354 L 194.8442,225.67614 L 191.13209,231.62692 L 203.34686,239.24652 L 201.04889,242.93034 L 184.4195,232.5569"
       style="font-size:36px;font-style:normal;font-variant:normal;font-weight:bold;font-stretch:normal;text-align:center;line-height:100%;writing-mode:lr-tb;text-anchor:middle;fill:#000000;fill-opacity:1;stroke:none;stroke-width:1px;stroke-linecap:butt;stroke-linejoin:miter;stroke-opacity:1;font-family:Arial" />
    <path
       id="text3447"
       d="M 72.223775,372.02237 L 91.313283,354.52905 L 94.911706,358.45581 L 75.822197,375.94913 L 72.223775,372.02237 M 90.718706,379.22821 L 95.180559,382.00596 C 94.600267,383.31501 94.535303,384.51694 94.985668,385.61175 C 95.442206,386.69662 96.44148,387.71904 97.983492,388.67903 C 99.296665,389.49656 100.43207,389.87902 101.38972,389.82641 C 102.34734,389.77379 103.11105,389.28986 103.68087,388.37461 C 104.51077,387.04152 103.28318,384.74502 99.998086,381.48509 C 99.954523,381.44417 99.915948,381.40635 99.882363,381.37163 C 99.795251,381.2898 99.662728,381.15898 99.484794,380.97918 C 97.714118,379.25566 96.564474,377.84283 96.035859,376.74069 C 95.569546,375.76019 95.392577,374.72514 95.504952,373.63554 C 95.623499,372.536 96.038901,371.4142 96.751156,370.27012 C 98.082732,368.13124 99.827783,366.94685 101.98631,366.71695 C 104.151,366.47715 106.60624,367.21193 109.35201,368.9213 C 111.91867,370.51922 113.54547,372.37405 114.23242,374.48579 C 114.92925,376.60374 114.63001,378.79176 113.33468,381.04984 L 108.99221,378.34641 C 109.5753,377.23239 109.67218,376.16767 109.28285,375.15223 C 108.89348,374.13682 108.01734,373.20486 106.65443,372.35635 C 105.47056,371.61934 104.40976,371.28333 103.47204,371.34832 C 102.55043,371.40958 101.82332,371.86798 101.2907,372.72353 C 100.56605,373.8875 101.27265,375.53526 103.41049,377.66681 C 103.98787,378.24715 104.43771,378.69975 104.76003,379.02463 C 106.10777,380.42966 107.04369,381.45406 107.56781,382.09783 C 108.10183,382.7478 108.53085,383.3669 108.85488,383.95512 C 109.44054,385.00995 109.70019,386.08957 109.63383,387.194 C 109.57363,388.28847 109.18741,389.40773 108.47519,390.5518 C 107.05068,392.83992 105.17415,394.13572 102.84561,394.43919 C 100.52322,394.7327 97.959311,394.00618 95.153877,392.25964 C 92.388218,390.53786 90.618947,388.54602 89.84606,386.28412 C 89.073163,384.02222 89.364045,381.67025 90.718706,379.22821 M 117.86578,402.54971 L 124.29363,377.46768 L 129.45307,378.78991 L 124.21217,399.24036 L 136.45519,402.37792 L 135.26824,407.0095 L 117.86578,402.54971 M 156.79651,386.87225 L 153.92509,398.1011 L 161.09973,397.63983 L 156.79651,386.87225 M 153.37643,381.89588 L 159.5161,381.50115 L 170.4921,406.74152 L 164.91377,407.10016 L 162.81786,401.89775 L 152.80143,402.54172 L 151.44159,407.96631 L 145.84572,408.32608 L 153.37643,381.89588 M 183.14873,403.43066 L 172.97108,379.62224 L 178.09482,377.43193 L 194.75281,389.65724 L 187.76042,373.30006 L 192.59322,371.23413 L 202.77088,395.04255 L 197.71179,397.20522 L 180.98915,385.00755 L 187.98154,401.36472 L 183.14873,403.43066 M 216.57489,379.40896 L 219.6903,376.48666 C 221.49373,374.79503 222.3562,373.10231 222.27774,371.40849 C 222.19978,369.69814 221.16667,367.78313 219.17839,365.66343 C 217.19812,363.55233 215.36692,362.3538 213.68477,362.06783 C 212.00263,361.78192 210.36241,362.38856 208.7641,363.88777 L 205.17433,367.25502 L 216.57489,379.40896 M 215.96607,386.39093 L 198.2519,367.50618 L 205.64939,360.56723 C 208.54685,357.8494 211.43856,356.6071 214.32454,356.84032 C 217.21906,357.06558 220.15753,358.76794 223.13996,361.94743 C 224.75944,363.67396 225.92155,365.44387 226.62631,367.25717 C 227.33958,369.06249 227.57303,370.83586 227.32666,372.57729 C 227.13572,373.88112 226.68588,375.11447 225.97716,376.27735 C 225.26039,377.43171 224.03876,378.81863 222.31227,380.43811 L 215.96607,386.39093"
       style="font-size:36px;font-style:normal;font-variant:normal;font-weight:bold;font-stretch:normal;text-align:center;line-height:100%;writing-mode:lr-tb;text-anchor:middle;fill:#000000;fill-opacity:1;stroke:none;stroke-width:1px;stroke-linecap:butt;stroke-linejoin:miter;stroke-opacity:1;font-family:Swis721 BT" />
  </g>
  <path
     sodipodi:type="star"
     style="opacity:1;fill:#f3e529;fill-opacity:1;fill-rule:evenodd;stroke:none;stroke-width:2;stroke-linecap:square;stroke-linejoin:bevel;stroke-miterlimit:4;stroke-dasharray:none;stroke-dashoffset:0.99999998000000001;stroke-opacity:1"
     id="path3482"
     sodipodi:sides="5"
     sodipodi:cx="149.99892"
     sodipodi:cy="143.84492"
     sodipodi:r1="35.234323"
     sodipodi:r2="13.675118"
     sodipodi:arg1="-1.5707963"
     sodipodi:arg2="-0.9424778"
     inkscape:flatsided="false"
     inkscape:rounded="0"
     inkscape:randomized="0"
     d="M 149.99892,108.6106 L 158.03695,132.78152 L 183.50875,132.95692 L 163.00473,148.07077 L 170.70913,172.35009 L 149.99892,157.52004 L 129.2887,172.35009 L 136.99311,148.07077 L 116.48909,132.95692 L 141.96088,132.78152 L 149.99892,108.6106 z " />
  <use
     x="0"
     y="0"
     xlink:href="#path3482"
     id="use3492"
     transform="translate(165.3742,155.3664)"
     width="900"
     height="600"
     style="stroke:none;fill:#f3e529;fill-opacity:1" />
  <use
     height="600"
     width="900"
     transform="translate(2.15124,322.0038)"
     id="use3495"
     xlink:href="#path3482"
     y="0"
     x="0"
     style="stroke:none;fill:#f3e529;fill-opacity:1" />
</svg>
