<svg xmlns="http://www.w3.org/2000/svg" width="600" height="400" viewBox="0 0 1800 1200">
<title>Flag of Cambodia"></title>
<g id="layer1">
<path style="font-size:12px;fill:#01029c;fill-opacity:1;fill-rule:evenodd;stroke-width:1pt" d="m 0,0 1800,0 0,1200 -1800,0 z" id="rect815" />
<path style="font-size:12px;fill:#cc0001;fill-opacity:1;fill-rule:evenodd;stroke-width:1pt;stroke:none" d="m 0,300 1800,0 0,600.00006 -1800,0 z" id="rect837" />
<path style="font-size:12px;fill:#fff;fill-rule:evenodd;stroke:#cc0001;stroke-width:2.83084273000000010" d="m 518.57196,598.87787 762.85734,0 0,123.35267 -762.85734,0 z" id="rect1035" />
<path style="font-size:12px;fill:#fff;fill-rule:evenodd;stroke:#cc0001;stroke-width:2.72954177999999990" id="path632" d="M 518.03661,722.23 L 505.71519,751.25415 L 1294.2869,751.25415 L 1281.9655,722.23 L 518.03661,722.23 z " />
<path style="font-size:12px;fill:#fff;fill-rule:evenodd;stroke:#cc0001;stroke-width:2.69970465000000020" id="path982" d="M 1120.6631,722.23104 L 1105.7148,751.25519 L 1285.0947,751.25519 L 1270.1464,722.23104 L 1120.6631,722.23104 z " />
<path style="font-size:12px;fill:#fff;fill-rule:evenodd;stroke:#cc0001;stroke-width:2.59386134000000010" id="path983" d="M 1163.8973,722.23104 L 1156.3686,751.25519 L 1246.7129,751.25519 L 1239.1842,722.23104 L 1163.8973,722.23104 z " />
<path style="font-size:12px;fill:#fff;fill-rule:evenodd;stroke:#cc0001;stroke-width:2.77748704000000000" id="path984" d="M 1177.2659,722.23104 L 1172.4001,751.25519 L 1230.7898,751.25519 L 1225.924,722.23104 L 1177.2659,722.23104 z " />
<path style="font-size:12px;fill:#fff;fill-rule:evenodd;stroke:#cc0001;stroke-width:2.70699905999999980" id="path636" d="M 821.42908,722.23053 L 805.7148,751.25468 L 994.28632,751.25468 L 978.57204,722.23053 L 821.42908,722.23053 z " />
<path style="font-size:12px;fill:#fff;fill-rule:evenodd;stroke:#cc0001;stroke-width:2.29530639999999990pt" d="m 514.28619,597.00214 771.42871,0 0,29.02427 -771.42871,0 z" id="rect976" />
<g style="font-size:12px" id="g1527" transform="matrix(2.419048,0,0,2.419048,4.043617e-4,17.45506)">
<path transform="translate(0,354.3307)" style="fill:#fff;fill-rule:evenodd;stroke:#cc0001;stroke-width:0.89339599999999997pt" d="m 462.79141,-113.8705 62.49999,0 0,50.792287 -62.49999,0 z" id="rect1001" />
<path transform="translate(0,354.3307)" style="fill:#fff;fill-rule:evenodd;stroke:#cc0001;stroke-width:0.80466402000000004" d="m 507.50031,-90.067528 6.24997,0 0,26.986357 -6.24997,0 z" id="rect637" />
<path transform="translate(0,354.3307)" style="fill:#fff;fill-rule:evenodd;stroke:#cc0001;stroke-width:0.80466901999999996" d="m 480,-90.067947 6.25013,0 0,26.986356 -6.25013,0 z" id="rect639" />
</g>
<g style="font-size:12px" id="g1517" transform="matrix(2.419048,0,0,2.419048,4.043617e-4,17.45506)">
<path transform="matrix(0.652611,0,0,0.799878,195.6307,67.3783)" style="fill:#fff;fill-rule:evenodd;stroke:#cc0001;stroke-width:1.55426002000000010" id="path637" d="M 245,280 L 240,295 L 300,295 L 295,280 L 245,280 z " />
<path transform="matrix(0.409314,0,0,0.799878,261.533,67.37808)" style="fill:#fff;fill-rule:evenodd;stroke:#cc0001;stroke-width:1.95571005000000000" id="path638" d="M 245,280 L 240,295 L 300,295 L 295,280 L 245,280 z " />
<path transform="translate(0,354.3307)" style="fill:#fff;fill-rule:evenodd;stroke:#cc0001;stroke-width:0.91886100999999998pt" d="m 338.80182,-113.97895 65.85432,0 0,50.992252 -65.85432,0 z" id="rect1003" />
<path transform="translate(0,354.3307)" style="fill:#fff;fill-rule:evenodd;stroke:#cc0001;stroke-width:1.03980005000000000" d="m 391.26965,-90.072311 6.24984,0 0,26.986356 -6.24984,0 z" id="rect683" />
<path transform="translate(0,354.3307)" style="fill:#fff;fill-rule:evenodd;stroke:#cc0001;stroke-width:1.04015993999999990" d="m 347.77557,-90.0746 6.25431,0 0,26.986357 -6.25431,0 z" id="rect686" />
<path transform="translate(0,354.3307)" style="fill:#fff;fill-rule:evenodd;stroke:#cc0001;stroke-width:0.71252499000000002pt" d="m 356.10236,-126.31962 31.88978,0 0,63.31962 -31.88978,0 z" id="rect687" />
<path transform="translate(0,354.3307)" style="fill:#fff;fill-rule:evenodd;stroke:#cc0001;stroke-width:1.03980005000000000" d="m 380.01965,-90.074051 6.24984,0 0,26.986357 -6.24984,0 z" id="rect684" />
<path transform="translate(0,354.3307)" style="fill:#fff;fill-rule:evenodd;stroke:#cc0001;stroke-width:1.04015993999999990" d="m 359.03354,-90.072853 6.25431,0 0,26.986357 -6.25431,0 z" id="rect685" />
<path transform="matrix(1,0,0,0.846538,0,54.3767)" style="fill:#fff;fill-rule:evenodd;stroke:#cc0001;stroke-width:1pt" id="path759" d="M 358.18,217.127 L 371.651,240.107 L 385.915,217.127 L 358.18,217.127 z " />
</g>
<path style="font-size:12px;fill:#fff;fill-rule:evenodd;stroke:#cc0001;stroke-width:2.85084820000000020" d="m 1179.515,598.87811 42.8572,0 0,152.37686 -42.8572,0 z" id="rect1033" />
<path style="font-size:12px;fill:#fff;fill-rule:evenodd;stroke:#cc0001;stroke-width:2.84939646999999980" d="m 1186.6293,598.87787 28.5428,0 0,152.37688 -28.5428,0 z" id="rect1034" />
<g style="font-size:12px" id="g1508" transform="matrix(2.419048,0,0,2.419048,4.043617e-4,17.45506)">
<path transform="matrix(1.236023,0,0,0.799878,-84.44766,67.37851)" style="fill:#fff;fill-rule:evenodd;stroke:#cc0001;stroke-width:1.12246001000000000" id="path635" d="M 245,280 L 240,295 L 300,295 L 295,280 L 245,280 z " />
<path transform="matrix(0.581103,0,0,0.799878,90.85617,67.37851)" style="fill:#fff;fill-rule:evenodd;stroke:#cc0001;stroke-width:1.63678002000000000" id="path634" d="M 245,280 L 240,295 L 300,295 L 295,280 L 245,280 z " />
<path transform="matrix(0.370769,0,0,0.799878,147.5582,67.37851)" style="fill:#fff;fill-rule:evenodd;stroke:#cc0001;stroke-width:2.04931997999999990" id="path633" d="M 245,280 L 240,295 L 300,295 L 295,280 L 245,280 z " />
<path transform="translate(0,354.3307)" style="fill:#fff;fill-rule:evenodd;stroke:#cc0001;stroke-width:0.89162302000000004pt" d="m 217.91341,-113.97871 62.00788,0 0,50.992241 -62.00788,0 z" id="rect1000" />
<path transform="translate(0,354.3307)" style="fill:#fff;fill-rule:evenodd;stroke:#cc0001;stroke-width:0.80466503000000000" d="m 229.99998,-90.06575 6.24989,0 0,26.986357 -6.24989,0 z" id="rect635" />
<path transform="translate(0,354.3307)" style="fill:#fff;fill-rule:evenodd;stroke:#cc0001;stroke-width:0.80466503000000000" d="m 258.74997,-90.065002 6.25001,0 0,26.986356 -6.25001,0 z" id="rect638" />
<path transform="translate(0,354.3307)" style="fill:#fff;fill-rule:evenodd;stroke:#cc0001;stroke-width:1.17850006000000000" d="m 239.17323,-113.97858 17.71655,0 0,62.990428 -17.71655,0 z" id="rect986" />
<path transform="translate(0,354.3307)" style="fill:#fff;fill-rule:evenodd;stroke:#cc0001;stroke-width:1.17789996000000000" d="m 242.11418,-113.97873 11.79921,0 0,62.990433 -11.79921,0 z" id="rect987" />
</g>
<path style="font-size:12px;fill:#fff;fill-rule:evenodd;stroke:#cc0001;stroke-width:2.32067012999999990pt" d="m 505.71481,569.84247 788.57149,0 0,29.02427 -788.57149,0 z" id="rect726" />
<path style="font-size:12px;fill:#fff;fill-rule:evenodd;stroke:#cc0001;stroke-width:2.08622226999999990pt" d="m 483.82458,743.99005 829.18662,0 0,37.31677 -829.18662,0 z" id="rect556" />
<path style="font-size:12px;fill:#fff;fill-rule:evenodd;stroke:#cc0001;stroke-width:2.11783427999999980pt" d="m 471.16522,751.98651 854.50528,0 0,37.31677 -854.50528,0 z" id="rect555" />
<path style="font-size:12px;fill:#fff;fill-rule:evenodd;stroke:#cc0001;stroke-width:2.17586746000000010pt" d="m 449.01138,773.31036 901.97782,0 0,37.31677 -901.97782,0 z" id="rect554" />
<path style="font-size:12px;fill:#fff;fill-rule:evenodd;stroke:#cc0001;stroke-width:2.25092772999999990pt" d="m 417.36304,799.96521 965.27446,0 0,37.31676 -965.27446,0 z" id="rect553" />
<path style="fill:#fff;fill-opacity:1;stroke:#cc0001;stroke-width:3.31979322000000020;stroke-linecap:butt;stroke-linejoin:miter;stroke-miterlimit:4;stroke-opacity:1" d="m 385.92123,837.4906 1028.15747,0 0,36.90172 -1028.15747,0 z" id="rect2869" />
<path style="font-size:12px;fill:#fff;fill-rule:evenodd;stroke:#cc0001;stroke-width:2.25050697000000000pt" d="m 578.57196,743.9895 42.85715,0 0,130.60864 -42.85715,0 z" id="rect613" />
<path style="font-size:12px;fill:#fff;fill-rule:evenodd;stroke:#cc0001;stroke-width:1.83753108999999990pt" d="m 585.71478,743.9895 28.57143,0 0,130.60864 -28.57143,0 z" id="rect614" />
<path style="font-size:12px;fill:#fff;fill-rule:evenodd;stroke:#cc0001;stroke-width:2.25050697000000000pt" d="m 1178.5721,743.99005 42.8572,0 0,130.60864 -42.8572,0 z" id="rect622" />
<path style="font-size:12px;fill:#fff;fill-rule:evenodd;stroke:#cc0001;stroke-width:1.83753108999999990pt" d="m 1185.715,743.99005 28.5714,0 0,130.60864 -28.5714,0 z" id="rect623" />
<path style="font-size:12px;fill:#fff;fill-rule:evenodd;stroke:#cc0001;stroke-width:2.90563941000000000" d="m 884.16125,598.86554 34.44423,0 0,275.73062 -34.44423,0 z" id="rect626" />
<g style="font-size:12px" id="g1531" transform="matrix(2.419048,0,0,2.419048,4.043617e-4,17.45506)">
<path transform="matrix(0.943652,0,0,0.846538,261.191,54.3767)" style="fill:#fff;fill-rule:evenodd;stroke:#cc0001;stroke-width:1pt" id="path801" d="M 217.919,220.296 L 218.103,183.381 C 218.103,183.381 221.465,190.617 247.615,192.202 C 272.364,191.265 276.463,186.84 277.584,182.918 L 276.559,220.433 L 217.919,220.296 z " />
<g transform="translate(246.5474,2.24131)" id="g892">
<path transform="matrix(0.414675,0,0,0.299955,99.0143,139.4772)" style="fill:#fff;fill-rule:evenodd;stroke:#cc0001;stroke-width:3.52778006000000000" id="path893" d="M 330.921,208.563 L 312.5,188.108 C 318.641,182.805 330.043,191.897 330.043,191.897 C 330.043,191.897 336.183,168.412 362.5,158.563 C 388.816,168.412 394.956,191.897 394.956,191.897 C 394.956,191.897 406.359,182.805 412.5,188.108 L 394.078,208.563 L 330.921,208.563 z " />
<path transform="matrix(0.539076,0,0,0.419936,53.91861,130.3519)" style="fill:#fff;fill-rule:evenodd;stroke:#cc0001;stroke-width:2.61495996000000020" id="path894" d="M 330.921,208.563 L 312.5,188.108 C 318.641,182.805 330.043,191.897 330.043,191.897 C 330.043,191.897 336.183,168.412 362.5,158.563 C 388.816,168.412 394.956,191.897 394.956,191.897 C 394.956,191.897 406.359,182.805 412.5,188.108 L 394.078,208.563 L 330.921,208.563 z " />
</g>
<g transform="matrix(1.020471,0,0,1.119836,221.6073,77.95599)" id="g727">
<path transform="matrix(0.386597,0,0,0.353094,268.9156,-29.03514)" style="fill:#fff;fill-rule:evenodd;stroke:#cc0001;stroke-width:3.38326000999999990" id="path728" d="M 0,280.521 C 0.792433,280.521 30.1125,332.822 0,333.614 C -30.1125,334.407 0,282.106 0,280.521 z " />
<path transform="matrix(0.3125,0,0,0.140625,155.6687,64.12357)" style="fill:#fff;fill-rule:evenodd;stroke:#cc0001;stroke-width:5.96285008999999990" id="path729" d="M 330.921,208.563 L 312.5,188.108 C 318.641,182.805 330.043,191.897 330.043,191.897 C 330.043,191.897 336.183,168.412 362.5,158.563 C 388.816,168.412 394.956,191.897 394.956,191.897 C 394.956,191.897 406.359,182.805 412.5,188.108 L 394.078,208.563 L 330.921,208.563 z " />
<path transform="matrix(0.160471,0,0,0.140625,210.7792,66.46732)" style="fill:#fff;fill-rule:evenodd;stroke:#cc0001;stroke-width:8.32108973999999970" id="path730" d="M 330.921,208.563 C 330.921,208.563 330.043,191.897 330.043,191.897 C 330.043,191.897 336.183,168.412 362.5,158.563 C 388.816,168.412 394.956,191.897 394.956,191.897 L 394.078,208.563 L 330.921,208.563 z " />
<path transform="matrix(0.320943,0,0,0.1875,152.6085,63.72217)" style="fill:#fff;fill-rule:evenodd;stroke:#cc0001;stroke-width:5.09560013000000020" id="path731" d="M 330.921,208.563 C 330.921,208.563 330.043,191.897 330.043,191.897 C 330.043,191.897 336.183,168.412 362.5,158.563 C 388.816,168.412 394.956,191.897 394.956,191.897 L 394.078,208.563 L 330.921,208.563 z " />
<path transform="matrix(0.320943,0,0,0.1875,152.6085,68.40971)" style="fill:#fff;fill-rule:evenodd;stroke:#cc0001;stroke-width:5.09560013000000020" id="path732" d="M 330.921,208.563 C 330.921,208.563 330.043,191.897 330.043,191.897 C 330.043,191.897 336.183,168.412 362.5,158.563 C 388.816,168.412 394.956,191.897 394.956,191.897 L 394.078,208.563 L 330.921,208.563 z " />
<path transform="matrix(0.3125,0,0,0.375,155.6687,43.36657)" style="fill:#fff;fill-rule:evenodd;stroke:#cc0001;stroke-width:3.65147996000000010" id="path733" d="M 330.921,208.563 L 312.5,188.108 C 318.641,182.805 330.043,191.897 330.043,191.897 C 330.043,191.897 336.183,168.412 362.5,158.563 C 388.816,168.412 394.956,191.897 394.956,191.897 C 394.956,191.897 406.359,182.805 412.5,188.108 L 394.078,208.563 L 330.921,208.563 z " />
<path transform="matrix(0.3125,0,0,0.375,155.6687,52.74157)" style="fill:#fff;fill-rule:evenodd;stroke:#cc0001;stroke-width:3.65147996000000010" id="path734" d="M 330.921,208.563 L 312.5,188.108 C 318.641,182.805 330.043,191.897 330.043,191.897 C 330.043,191.897 336.183,168.412 362.5,158.563 C 388.816,168.412 394.956,191.897 394.956,191.897 C 394.956,191.897 406.359,182.805 412.5,188.108 L 394.078,208.563 L 330.921,208.563 z " />
<path transform="matrix(0.320943,0,0,0.46875,152.6085,47.25131)" style="fill:#fff;fill-rule:evenodd;stroke:#cc0001;stroke-width:3.22273992999999990" id="path735" d="M 330.921,208.563 C 330.921,208.563 330.043,191.897 330.043,191.897 C 330.043,191.897 336.183,168.412 362.5,158.563 C 388.816,168.412 394.956,191.897 394.956,191.897 L 394.078,208.563 L 330.921,208.563 z " />
<path transform="matrix(0.3125,0,0,0.28125,155.6687,86.35687)" style="fill:#fff;fill-rule:evenodd;stroke:#cc0001;stroke-width:4.21637010999999970" id="path736" d="M 330.921,208.563 L 312.5,188.108 C 318.641,182.805 330.043,191.897 330.043,191.897 C 330.043,191.897 336.183,168.412 362.5,158.563 C 388.816,168.412 394.956,191.897 394.956,191.897 C 394.956,191.897 406.359,182.805 412.5,188.108 L 394.078,208.563 L 330.921,208.563 z " />
</g>
</g>
<g style="font-size:12px" id="g1546" transform="matrix(2.419048,0,0,2.419048,4.043617e-4,17.45506)">
<g transform="translate(-1.120682,-1.525879e-5)" id="g889">
<path transform="matrix(0.414675,0,0,0.299955,99.0143,139.4772)" style="fill:#fff;fill-rule:evenodd;stroke:#cc0001;stroke-width:3.52778006000000000" id="path874" d="M 330.921,208.563 L 312.5,188.108 C 318.641,182.805 330.043,191.897 330.043,191.897 C 330.043,191.897 336.183,168.412 362.5,158.563 C 388.816,168.412 394.956,191.897 394.956,191.897 C 394.956,191.897 406.359,182.805 412.5,188.108 L 394.078,208.563 L 330.921,208.563 z " />
<path transform="matrix(0.539076,0,0,0.419936,53.91861,130.3519)" style="fill:#fff;fill-rule:evenodd;stroke:#cc0001;stroke-width:2.61495996000000020" id="path879" d="M 330.921,208.563 L 312.5,188.108 C 318.641,182.805 330.043,191.897 330.043,191.897 C 330.043,191.897 336.183,168.412 362.5,158.563 C 388.816,168.412 394.956,191.897 394.956,191.897 C 394.956,191.897 406.359,182.805 412.5,188.108 L 394.078,208.563 L 330.921,208.563 z " />
</g>
<path transform="matrix(0.943652,0,0,0.846538,15.64132,54.3767)" style="fill:#fff;fill-rule:evenodd;stroke:#cc0001;stroke-width:1pt" id="path800" d="M 217.919,220.296 L 218.103,183.381 C 218.103,183.381 221.465,190.617 247.615,192.202 C 272.364,191.265 276.463,186.84 277.584,182.918 L 276.559,220.433 L 217.919,220.296 z " />
<g transform="matrix(1.020471,0,0,1.119836,-26.42415,77.95599)" id="g603">
<path transform="matrix(0.386597,0,0,0.353094,268.9156,-29.03514)" style="fill:#fff;fill-rule:evenodd;stroke:#cc0001;stroke-width:3.38326000999999990" id="path583" d="M 0,280.521 C 0.792433,280.521 30.1125,332.822 0,333.614 C -30.1125,334.407 0,282.106 0,280.521 z " />
<path transform="matrix(0.3125,0,0,0.140625,155.6687,64.12357)" style="fill:#fff;fill-rule:evenodd;stroke:#cc0001;stroke-width:5.96285008999999990" id="path582" d="M 330.921,208.563 L 312.5,188.108 C 318.641,182.805 330.043,191.897 330.043,191.897 C 330.043,191.897 336.183,168.412 362.5,158.563 C 388.816,168.412 394.956,191.897 394.956,191.897 C 394.956,191.897 406.359,182.805 412.5,188.108 L 394.078,208.563 L 330.921,208.563 z " />
<path transform="matrix(0.160471,0,0,0.140625,210.7792,66.46732)" style="fill:#fff;fill-rule:evenodd;stroke:#cc0001;stroke-width:8.32108973999999970" id="path581" d="M 330.921,208.563 C 330.921,208.563 330.043,191.897 330.043,191.897 C 330.043,191.897 336.183,168.412 362.5,158.563 C 388.816,168.412 394.956,191.897 394.956,191.897 L 394.078,208.563 L 330.921,208.563 z " />
<path transform="matrix(0.320943,0,0,0.1875,152.6085,63.72217)" style="fill:#fff;fill-rule:evenodd;stroke:#cc0001;stroke-width:5.09560013000000020" id="path580" d="M 330.921,208.563 C 330.921,208.563 330.043,191.897 330.043,191.897 C 330.043,191.897 336.183,168.412 362.5,158.563 C 388.816,168.412 394.956,191.897 394.956,191.897 L 394.078,208.563 L 330.921,208.563 z " />
<path transform="matrix(0.320943,0,0,0.1875,152.6085,68.40971)" style="fill:#fff;fill-rule:evenodd;stroke:#cc0001;stroke-width:5.09560013000000020" id="path579" d="M 330.921,208.563 C 330.921,208.563 330.043,191.897 330.043,191.897 C 330.043,191.897 336.183,168.412 362.5,158.563 C 388.816,168.412 394.956,191.897 394.956,191.897 L 394.078,208.563 L 330.921,208.563 z " />
<path transform="matrix(0.3125,0,0,0.375,155.6687,43.36657)" style="fill:#fff;fill-rule:evenodd;stroke:#cc0001;stroke-width:3.65147996000000010" id="path576" d="M 330.921,208.563 L 312.5,188.108 C 318.641,182.805 330.043,191.897 330.043,191.897 C 330.043,191.897 336.183,168.412 362.5,158.563 C 388.816,168.412 394.956,191.897 394.956,191.897 C 394.956,191.897 406.359,182.805 412.5,188.108 L 394.078,208.563 L 330.921,208.563 z " />
<path transform="matrix(0.3125,0,0,0.375,155.6687,52.74157)" style="fill:#fff;fill-rule:evenodd;stroke:#cc0001;stroke-width:3.65147996000000010" id="path575" d="M 330.921,208.563 L 312.5,188.108 C 318.641,182.805 330.043,191.897 330.043,191.897 C 330.043,191.897 336.183,168.412 362.5,158.563 C 388.816,168.412 394.956,191.897 394.956,191.897 C 394.956,191.897 406.359,182.805 412.5,188.108 L 394.078,208.563 L 330.921,208.563 z " />
<path transform="matrix(0.320943,0,0,0.46875,152.6085,47.25131)" style="fill:#fff;fill-rule:evenodd;stroke:#cc0001;stroke-width:3.22273992999999990" id="path578" d="M 330.921,208.563 C 330.921,208.563 330.043,191.897 330.043,191.897 C 330.043,191.897 336.183,168.412 362.5,158.563 C 388.816,168.412 394.956,191.897 394.956,191.897 L 394.078,208.563 L 330.921,208.563 z " />
<path transform="matrix(0.3125,0,0,0.28125,155.6687,86.35687)" style="fill:#fff;fill-rule:evenodd;stroke:#cc0001;stroke-width:4.21637010999999970" id="path574" d="M 330.921,208.563 L 312.5,188.108 C 318.641,182.805 330.043,191.897 330.043,191.897 C 330.043,191.897 336.183,168.412 362.5,158.563 C 388.816,168.412 394.956,191.897 394.956,191.897 C 394.956,191.897 406.359,182.805 412.5,188.108 L 394.078,208.563 L 330.921,208.563 z " />
</g>
</g>
<path style="font-size:12px;fill:#fff;fill-rule:evenodd;stroke:#cc0001;stroke-width:2.96468830000000020" d="m 812.74339,564.82568 174.51429,0 c 8.64241,0 15.60002,6.95761 15.60002,15.60002 0,8.64241 -6.95761,15.60001 -15.60002,15.60001 l -174.51429,0 c -8.64241,0 -15.60002,-6.9576 -15.60002,-15.60001 0,-8.64241 6.95761,-15.60002 15.60002,-15.60002 z" id="rect901" />
<path d="M 1005.8238,583.1696 L 1007.1458,480.31243 C 1007.1458,480.31243 1003.1785,505.54187 991.27315,505.54187 C 979.36899,505.54187 820.63801,505.54187 808.73385,505.54187 C 796.82848,505.54187 792.86003,480.31243 792.86003,480.31243 L 794.18204,583.1696 L 1005.8238,583.1696 z " id="path900" style="font-size:12px;fill:#fff;fill-rule:evenodd;stroke:#cc0001;stroke-width:2.33888769000000000" />
<path style="font-size:12px;fill:#fff;fill-rule:evenodd;stroke:#cc0001;stroke-width:2.78213072000000010" id="path807" d="M 965.38656,536.48824 L 965.78231,502.9075 C 965.78231,502.9075 988.57647,496.74161 985.41332,487.94206 C 982.24921,479.14263 954.83276,499.03726 954.83276,499.03726 L 845.1679,499.03726 C 845.1679,499.03726 817.75049,479.14263 814.58736,487.94206 C 811.42422,496.74161 834.21837,502.9075 834.21837,502.9075 L 834.61314,536.48824 L 965.38656,536.48824 z " />
<path style="font-size:12px;fill:#fff;fill-rule:evenodd;stroke:#cc0001;stroke-width:2.78213667999999980" id="path806" d="M 978.46403,565.51222 L 978.93893,529.93148 C 978.93893,529.93148 1006.2919,525.76559 1002.4962,516.96604 C 998.69922,508.16661 965.79946,528.06124 965.79946,528.06124 L 834.20158,528.06124 C 834.20158,528.06124 801.30067,508.16661 797.50492,516.96604 C 793.70914,525.76559 821.06214,529.93148 821.06214,529.93148 L 821.53586,565.51222 L 978.46403,565.51222 z " />
<path style="font-size:12px;fill:#fff;fill-rule:evenodd;stroke:#cc0001;stroke-width:2.78190516999999990;stroke-miterlimit:4;stroke-dasharray:none" id="path814" d="M 919.13173,384.14363 L 919.2602,369.97099 C 903.19751,369.97099 907.18446,354.55089 907.18446,348.70838 C 911.91895,342.82925 913.24266,331.30597 900.02914,325.33926 C 887.09608,331.99849 888.11622,342.71746 892.87413,348.21412 C 892.94515,354.70636 898.15576,369.97099 880.55048,369.97099 L 880.67864,384.14363 L 919.13173,384.14363 z " />
<path style="font-size:12px;fill:#fff;fill-rule:evenodd;stroke:#cc0001;stroke-width:2.78214073000000010" id="path808" d="M 946.30346,476.4607 L 946.58378,449.34934 C 946.58378,449.34934 962.72921,443.94093 960.48871,436.74131 C 958.24754,429.54184 938.82807,445.81918 938.82807,445.81918 L 861.15089,445.81918 C 861.15089,445.81918 841.73073,429.54184 839.49023,436.74131 C 837.24975,443.94093 853.39516,449.34934 853.39516,449.34934 L 853.6748,476.4607 L 946.30346,476.4607 z " />
<path style="font-size:12px;fill:#fff;fill-rule:evenodd;stroke:#cc0001;stroke-width:2.78214169000000000" id="path809" d="M 955.57908,500.20777 L 955.91548,471.09641 C 955.91548,471.09641 975.29055,467.688 972.60188,460.48838 C 969.91238,453.28891 946.60833,469.56624 946.60833,469.56624 L 853.39298,469.56624 C 853.39298,469.56624 830.08811,453.28891 827.39944,460.48838 C 824.71076,467.688 844.08584,471.09641 844.08584,471.09641 L 844.42141,500.20777 L 955.57908,500.20777 z " />
<path style="font-size:12px;fill:#fff;fill-rule:evenodd;stroke:#cc0001;stroke-width:2.78215599000000010" id="path810" d="M 929.9671,433.29015 L 930.14848,415.52293 C 930.14848,415.52293 940.59574,411.20853 939.14598,406.31985 C 937.69576,401.43124 925.12995,412.48392 925.12995,412.48392 L 874.86714,412.48392 C 874.86714,412.48392 862.30088,401.43124 860.85112,406.31985 C 859.40134,411.20853 869.84863,415.52293 869.84863,415.52293 L 870.02957,433.29015 L 929.9671,433.29015 z " />
<path style="font-size:12px;fill:#fff;fill-rule:evenodd;stroke:#cc0001;stroke-width:2.78215574999999980" id="path811" d="M 935.96312,449.41746 L 936.18079,431.65024 C 936.18079,431.65024 948.7176,427.33584 946.97787,422.44716 C 945.2376,417.55855 930.15852,428.61123 930.15852,428.61123 L 869.8427,428.61123 C 869.8427,428.61123 854.76308,417.55855 853.02335,422.44716 C 851.28362,427.33584 863.82043,431.65024 863.82043,431.65024 L 864.03757,449.41746 L 935.96312,449.41746 z " />
<path style="font-size:12px;fill:#fff;fill-rule:evenodd;stroke:#cc0001;stroke-width:2.78212714000000010" id="path812" d="M 921.21401,401.94261 L 921.34249,385.76997 C 921.34249,385.76997 928.74216,381.87643 927.7153,377.87675 C 926.68815,373.8771 917.78792,382.91989 917.78792,382.91989 L 882.18734,382.91989 C 882.18734,382.91989 873.2868,373.8771 872.25993,377.87675 C 871.2331,381.87643 878.63277,385.76997 878.63277,385.76997 L 878.76093,399.94261 L 921.21401,401.94261 z " />
<path style="font-size:12px;fill:#fff;fill-rule:evenodd;stroke:#cc0001;stroke-width:2.78212642999999990" id="path813" d="M 925.47127,413.13464 L 925.62544,398.962 C 925.62544,398.962 934.50567,395.06847 933.27336,391.06879 C 932.04068,387.06914 921.35969,396.11192 921.35969,396.11192 L 878.63606,396.11192 C 878.63606,396.11192 867.95468,387.06914 866.72239,391.06879 C 865.49008,395.06847 874.37031,398.962 874.37031,398.962 L 874.52411,413.13464 L 925.47127,413.13464 z " />
<path style="font-size:12px;fill:#fff;fill-rule:evenodd;stroke:#cc0001;stroke-width:2.35133337999999980" id="path767" d="M 886.46671,413.86769 L 878.57196,404.96233 C 881.20383,402.65359 886.09043,406.61192 886.09043,406.61192 C 886.09043,406.61192 888.72187,396.38741 900.00061,392.09952 C 911.27896,396.38741 913.91038,406.61192 913.91038,406.61192 C 913.91038,406.61192 918.79741,402.65359 921.42929,404.96233 L 913.53409,413.86769 L 886.46671,413.86769 z " />
<path style="font-size:12px;fill:#fff;fill-rule:evenodd;stroke:#cc0001;stroke-width:2.78213263000000000" id="path766" d="M 881.05325,428.3798 L 870.00062,419.47444 C 873.68521,417.1657 880.52645,421.12403 880.52645,421.12403 C 880.52645,421.12403 884.21044,410.89952 900.00068,406.61163 C 915.79032,410.89952 919.47433,421.12403 919.47433,421.12403 C 919.47433,421.12403 926.31615,417.1657 930.00075,419.47444 L 918.94751,428.3798 L 881.05325,428.3798 z " />
<path style="font-size:12px;fill:#fff;fill-rule:evenodd;stroke:#cc0001;stroke-width:2.78213525000000010" id="path765" d="M 878.34638,453.76239 L 865.71481,441.88859 C 869.92579,438.81027 877.74433,444.08803 877.74433,444.08803 C 877.74433,444.08803 881.95461,430.45537 900.00058,424.73816 C 918.04588,430.45537 922.25616,444.08803 922.25616,444.08803 C 922.25616,444.08803 930.07537,438.81027 934.28636,441.88859 L 921.65411,453.76239 L 878.34638,453.76239 z " />
<path style="font-size:12px;fill:#fff;fill-rule:evenodd;stroke:#cc0001;stroke-width:2.78213762999999980" id="path764" d="M 872.93291,484.94972 L 857.14347,470.10748 C 862.40718,466.25958 872.18035,472.85678 872.18035,472.85678 C 872.18035,472.85678 877.4432,455.81594 900.00066,448.66944 C 922.55724,455.81594 927.8201,472.85678 927.8201,472.85678 C 927.8201,472.85678 937.59411,466.25958 942.85784,470.10748 L 927.06753,484.94972 L 872.93291,484.94972 z " />
<path style="font-size:12px;fill:#fff;fill-rule:evenodd;stroke:#cc0001;stroke-width:2.78212714000000010" id="path762" d="M 869.035,510.61715 L 899.11531,548.07679 L 930.96636,510.61715 L 869.035,510.61715 z " />
<path style="font-size:12px;fill:#fff;fill-rule:evenodd;stroke:#cc0001;stroke-width:2.78213095999999990" id="path763" d="M 867.51945,514.7717 L 848.57211,498.23126 C 854.88858,493.94314 866.61634,501.29516 866.61634,501.29516 C 866.61634,501.29516 872.93178,482.30459 900.00071,474.34045 C 927.06862,482.30459 933.38405,501.29516 933.38405,501.29516 C 933.38405,501.29516 945.11285,493.94314 951.4293,498.23126 L 932.48095,514.7717 L 867.51945,514.7717 z " />
<path style="font-size:12px;fill:#fff;fill-rule:evenodd;stroke:#cc0001;stroke-width:2.78213214999999980" id="path760" d="M 866.45463,551.81056 L 899.04163,598.86937 L 933.54693,551.81056 L 866.45463,551.81056 z " />
<path style="font-size:12px;fill:#fff;fill-rule:evenodd;stroke:#cc0001;stroke-width:2.78212856999999980" id="path761" d="M 864.81258,557.07436 L 844.28633,536.29525 C 851.12914,530.90822 863.83424,540.14429 863.83424,540.14429 C 863.83424,540.14429 870.67597,516.28716 900.00063,506.2821 C 929.32416,516.28716 936.16588,540.14429 936.16588,540.14429 C 936.16588,540.14429 948.8721,530.90822 955.71494,536.29525 L 935.18755,557.07436 L 864.81258,557.07436 z " />
<path style="font-size:12px;fill:#fff;fill-rule:evenodd;stroke:#cc0001;stroke-width:2.78212856999999980" id="path746" d="M 864.81258,598.86946 L 844.28633,578.09035 C 851.12914,572.70332 863.83424,581.93939 863.83424,581.93939 C 863.83424,581.93939 870.67597,558.08226 900.00063,548.0772 C 929.32416,558.08226 936.16588,581.93939 936.16588,581.93939 C 936.16588,581.93939 948.8721,572.70332 955.71494,578.09035 L 935.18755,598.86946 L 864.81258,598.86946 z " />
<g style="font-size:12px" id="g1584" transform="matrix(2.419048,0,0,2.419048,4.043617e-4,17.45506)">
<path transform="translate(0,354.3307)" style="fill:#fff;fill-rule:evenodd;stroke:#cc0001;stroke-width:1.03980005000000000" d="m 285.34253,-90.069969 6.24984,0 0,26.986357 -6.24984,0 z" id="rect644" />
<path transform="translate(0,354.3307)" style="fill:#fff;fill-rule:evenodd;stroke:#cc0001;stroke-width:1.03980005000000000" d="m 306.59253,-90.072456 6.24984,0 0,26.986356 -6.24984,0 z" id="rect649" />
<path transform="translate(0,354.3307)" style="fill:#fff;fill-rule:evenodd;stroke:#cc0001;stroke-width:1.03980005000000000" d="m 296.59253,-90.072998 6.24984,0 0,26.986357 -6.24984,0 z" id="rect650" />
<path transform="translate(0,354.3307)" style="fill:#fff;fill-rule:evenodd;stroke:#cc0001;stroke-width:1.03980005000000000" d="m 410.13779,-90.071472 6.24984,0 0,26.986357 -6.24984,0 z" id="rect652" />
<path transform="translate(0,354.3307)" style="fill:#fff;fill-rule:evenodd;stroke:#cc0001;stroke-width:1.03980005000000000" d="m 452.63776,-90.072777 6.24984,0 0,26.986357 -6.24984,0 z" id="rect653" />
<path transform="translate(0,354.3307)" style="fill:#fff;fill-rule:evenodd;stroke:#cc0001;stroke-width:1.03980005000000000" d="m 431.38779,-90.073967 6.24984,0 0,26.986357 -6.24984,0 z" id="rect654" />
<path transform="translate(0,354.3307)" style="fill:#fff;fill-rule:evenodd;stroke:#cc0001;stroke-width:1.03980005000000000" d="m 421.38779,-90.074509 6.24984,0 0,26.986357 -6.24984,0 z" id="rect655" />
<path transform="translate(0,354.3307)" style="fill:#fff;fill-rule:evenodd;stroke:#cc0001;stroke-width:1.03980005000000000" d="m 441.38779,-90.074532 6.24984,0 0,26.986357 -6.24984,0 z" id="rect656" />
<path transform="translate(0,354.3307)" style="fill:#fff;fill-rule:evenodd;stroke:#cc0001;stroke-width:1.03980005000000000" d="m 327.8425,-90.071274 6.24984,0 0,26.986357 -6.24984,0 z" id="rect648" />
<path transform="translate(0,354.3307)" style="fill:#fff;fill-rule:evenodd;stroke:#cc0001;stroke-width:1.03980005000000000" d="m 316.59253,-90.073021 6.24984,0 0,26.986357 -6.24984,0 z" id="rect651" />
</g>
<path style="fill:#fff;fill-opacity:1;stroke:#cc0001;stroke-width:1.60868715999999990;stroke-linecap:butt;stroke-linejoin:miter;stroke-miterlimit:4;stroke-opacity:1" d="m 884.21008,358.52841 31.39049,0 0,11.92305 -31.39049,0 z" id="rect1979" />
<path style="fill:#fff;fill-opacity:1;stroke:#cc0001;stroke-width:1.34855735000000010;stroke-linecap:butt;stroke-linejoin:miter;stroke-miterlimit:4;stroke-opacity:1" d="m 888.34619,346.84372 23.11827,0 0,11.37694 -23.11827,0 z" id="rect2867" />
</g>
</svg>
