<?xml version="1.0" encoding="UTF-8" standalone="no"?>
<!-- Created with Inkscape (http://www.inkscape.org/) -->

<svg
   xmlns:svg="http://www.w3.org/2000/svg"
   xmlns="http://www.w3.org/2000/svg"
   xmlns:xlink="http://www.w3.org/1999/xlink"
   version="1.0"
   width="1200"
   height="600"
   id="svg551">
  <defs
     id="defs60" />
  <rect
     width="1200"
     height="600"
     x="0"
     y="0"
     id="rect628"
     style="fill:#ffb700" />
  <rect
     width="165"
     height="500"
     x="215"
     y="50"
     id="rect626"
     style="fill:#ff5b00" />
  <rect
     width="165"
     height="500"
     x="50"
     y="50"
     id="rect625"
     style="fill:#005641" />
  <rect
     width="725"
     height="500"
     x="430"
     y="50"
     id="rect627"
     style="fill:#8d2029" />
  <path
     d="m 711.36736,206.16728 -27.60195,4.26372 -34.55854,-4.48812 6.50778,6.28337 -3.14169,10.54708 77.1957,18.85012 8.07862,-24.23586 -26.47992,-11.22031 z"
     id="path5092"
     style="fill:#ffb700;fill-opacity:1;fill-rule:evenodd;stroke:none" />
  <use
     transform="matrix(-1,0,0,1,1585,0)"
     id="use3712"
     x="0"
     y="0"
     width="1200"
     height="600"
     xlink:href="#path2389" />
  <use
     transform="matrix(1,0,0,-1,0,600)"
     id="use3710"
     x="0"
     y="0"
     width="1200"
     height="600"
     xlink:href="#path2389" />
  <use
     transform="matrix(-1,0,0,-1,1585,600)"
     id="use3714"
     x="0"
     y="0"
     width="1200"
     height="600"
     xlink:href="#path2389" />
  <path
     d="m 498.93712,466.06288 c 0,0 -6.79817,13.84078 -14.30866,19.4803 -11.12764,8.35556 -33.94508,7.75196 -43.62858,17.50007 -11.60368,11.49512 0.90045,26.68249 0.79591,28.00041 l -0.63625,8.02062 c 0,0 7.82449,0.0943 11.11863,0.60793 4.95382,0.7724 6.88599,4.80316 16.10899,4.20452 23.18928,-1.50519 22.25458,-22.39673 23.56581,-40.25016 1.16464,-6.79827 3.85945,-15.66202 5.39079,-22.45842 1.31306,-5.82766 1.59336,-15.10527 1.59336,-15.10527 z"
     id="path2389"
     style="fill:#ffb700;fill-opacity:1;fill-rule:evenodd;stroke:#000000;stroke-width:2.12575722;stroke-linecap:butt;stroke-linejoin:miter;stroke-miterlimit:4;stroke-opacity:1;stroke-dasharray:none" />
  <path
     d="m 878.32483,353.00606 c 0,0 10.49608,6.10852 15.56304,-5.72762 0,0 6.15234,9.92693 17.73267,4.58138"
     id="_163938080"
     style="fill:none;stroke:#000000;stroke-width:1.76608539" />
  <g
     transform="matrix(1.1282476e-4,0,0,1.1902797e-4,62.449498,-730.46389)"
     id="g450">
    <path
       d="m 6913790,9208500 c 0,0 0,211710 288700,429830 0,0 48110,378510 -83400,311150 -134730,-67360 -279070,-32080 -323980,234160 0,0 391340,-44910 490780,-9620 0,0 16030,-64160 153960,9620 147560,76980 291910,-131520 134730,-198880 0,0 -44910,-246990 67360,-301520 0,0 83400,32080 128310,-150760 0,0 6410,16040 -112270,3200 0,0 -83400,-3200 -112270,48120 0,0 67360,-285480 179630,-375300 112270,-86610 234160,-381720 240580,-493980 l -1052130,493980 z"
       id="_163939456"
       style="fill:#ffb700;stroke:#000000;stroke-width:22860" />
    <path
       d="m 6913790,9208500 c 0,0 0,211710 288700,429830 0,0 48110,378510 -83400,311150 -134730,-67360 -279070,-32080 -323980,234160 0,0 391340,-44910 490780,-9620 0,0 16030,-64160 153960,9620 147560,76980 291910,-131520 134730,-198880 0,0 -44910,-246990 67360,-301520 0,0 83400,32080 128310,-150760 0,0 6410,16040 -112270,3200 0,0 -83400,-3200 -112270,48120 0,0 67360,-285480 179630,-375300 112270,-86610 234160,-381720 240580,-493980"
       id="_163940656"
       style="fill:none;stroke:#000000;stroke-width:22860" />
    <path
       d="m 7090220,10154800 c 0,0 16030,-102650 112270,-131520 l -112270,131520 z"
       id="_163941408"
       style="fill:#ffb700;stroke:#000000;stroke-width:22860" />
    <path
       d="m 7090220,10154800 c 0,0 16030,-102650 112270,-131520"
       id="_163942024"
       style="fill:none;stroke:#000000;stroke-width:22860" />
    <path
       d="m 6929830,10174000 c 0,0 22460,-121900 115480,-150770 l -115480,150770 z"
       id="_163943040"
       style="fill:#ffb700;stroke:#000000;stroke-width:22860" />
    <path
       d="m 6929830,10174000 c 0,0 22460,-121900 115480,-150770"
       id="_163943816"
       style="fill:none;stroke:#000000;stroke-width:22860" />
  </g>
  <path
     d="m 612.32353,312.15209 c 27.14338,-14.12624 49.58084,26.34446 49.58084,26.34446 l 30.7628,46.96249 c 0,0 -5.42913,62.23377 -50.30518,-2.67218 0,0 -4.70479,22.14396 -26.78121,-1.90921 l -3.25725,-68.72556 z"
     id="_163945152"
     style="fill:#ffb700;stroke:#000000;stroke-width:2.64912796" />
  <path
     d="m 580.83753,349.18764 c 0,0 -13.39118,4.96347 1.8097,11.07199 11.58034,4.96346 49.21868,-6.10852 34.74326,-17.56258 l -36.55296,6.49059 z"
     id="_163945008"
     style="fill:#ffb700;stroke:#000000;stroke-width:2.64912796" />
  <path
     d="m 580.83753,349.18764 c 0,0 -13.39118,4.96347 1.8097,11.07199 11.58034,4.96346 49.21868,-6.10852 34.74326,-17.56258"
     id="_163946952"
     style="fill:none;stroke:#000000;stroke-width:2.64912796" />
  <path
     d="m 580.47536,337.3515 c 0,0 -12.30467,6.87268 2.89508,12.98119 13.029,5.34555 48.49547,-9.16277 33.29572,-18.32673 l -36.1908,5.34554 z"
     id="_163948048"
     style="fill:#ffb700;stroke:#000000;stroke-width:2.64912796" />
  <path
     d="m 580.47536,337.3515 c 0,0 -12.30467,6.87268 2.89508,12.98119 13.029,5.34555 48.49547,-9.16277 33.29572,-18.32673"
     id="_163948968"
     style="fill:none;stroke:#000000;stroke-width:2.64912796" />
  <path
     d="m 579.02782,324.75239 c 0,0 -13.02901,4.58139 1.44754,12.59911 12.30467,6.4906 49.58197,-3.81841 35.46759,-14.50832 l -36.91513,1.90921 z"
     id="_163950064"
     style="fill:#ffb700;stroke:#000000;stroke-width:2.64912796" />
  <path
     d="m 579.02782,324.75239 c 0,0 -13.02901,4.58139 1.44754,12.59911 12.30467,6.4906 49.58197,-3.81841 35.46759,-14.50832"
     id="_163950984"
     style="fill:none;stroke:#000000;stroke-width:2.64912796" />
  <path
     d="m 579.02782,310.24288 c 0,0 -14.47655,6.49179 0,14.50951 14.47654,8.01773 52.11488,-0.76416 35.82863,-13.36327 l -35.82863,-1.14624 z"
     id="_163952080"
     style="fill:#ffb700;stroke:#000000;stroke-width:2.64912796" />
  <path
     d="m 579.02782,310.24288 c 0,0 -14.47655,6.49179 0,14.50951 14.47654,8.01773 52.11488,-0.76416 35.82863,-13.36327"
     id="_163953000"
     style="fill:none;stroke:#000000;stroke-width:2.64912796" />
  <path
     d="m 619.19907,298.78882 c -4.34262,0.76416 -3.61829,-3.81723 -3.61829,-3.81723 4.34263,-14.8904 17.37163,-4.20049 15.56192,3.81723 -1.80971,8.01892 -18.81917,20.61803 -48.13443,11.83614 -29.67629,-8.3998 -20.26671,-23.67109 -20.26671,-23.67109 18.09597,-17.94585 20.26671,6.49059 20.26671,6.49059 0,0 -4.70479,4.58139 -7.59987,0.76297 0,0 15.92408,16.03545 43.42963,4.58139 l 0.36104,0 z"
     id="_163954096"
     style="fill:#ffb700;stroke:#000000;stroke-width:2.64912796" />
  <path
     d="m 617.75153,313.29833 c 0,0 3.98159,0.38089 6.5145,-1.90921 2.53405,-2.29129 -2.53291,9.54485 -6.15233,8.7807 -3.98046,-0.38089 -1.44754,-6.4906 -0.36217,-6.87149 z"
     id="_163954840"
     style="fill:#ffb700;stroke:#000000;stroke-width:2.64912796" />
  <path
     d="m 617.39049,323.60615 c 0,0 3.98046,0.38208 6.51337,-1.90802 2.53405,-2.29128 -2.53291,9.54486 -6.15233,8.7807 -3.98046,-0.38208 -1.44754,-6.4906 -0.36104,-6.87268 z"
     id="_163955928"
     style="fill:#ffb700;stroke:#000000;stroke-width:2.64912796" />
  <path
     d="m 617.39049,333.1522 c 0,0 3.98046,0.38089 6.51337,-1.90921 2.53405,-2.29129 -2.53291,9.54485 -6.15233,9.16277 -3.98046,-0.76297 -1.44754,-6.87267 -0.36104,-7.25356 z"
     id="_163956664"
     style="fill:#ffb700;stroke:#000000;stroke-width:2.64912796" />
  <path
     d="m 617.39049,343.8421 c 0,0 3.98046,0.38208 6.51337,-1.90921 2.53405,-2.2901 -2.53291,9.54604 -6.15233,8.78188 -3.98046,-0.38208 -1.44754,-6.49059 -0.36104,-6.87267 z"
     id="_163957400"
     style="fill:#ffb700;stroke:#000000;stroke-width:2.64912796" />
  <path
     d="m 606.1712,358.35042 c -1.44755,6.87267 2.89508,11.83614 2.89508,11.83614 0,0 14.83758,-28.25367 18.09483,1.52713 0,0 -9.04741,14.8904 -24.24716,7.25475 0,0 13.029,0.76297 4.70479,20.99892 0,0 -0.72434,14.12743 8.32421,7.63683 0,0 -7.23884,1.14505 -6.15346,-5.72762 0,0 7.96204,-27.48951 19.18133,-3.05426 7.23884,15.65456 -16.28512,22.14515 -25.33367,17.18168 0,0 3.25725,11.07199 9.04855,11.07199 0,0 -2.89621,4.1993 -8.68638,2.67217 0,0 0,7.63684 -4.70479,10.30902 -5.06696,-2.67218 -5.06696,-9.92694 -5.06696,-9.92694 -5.79017,1.14505 -9.04742,-2.67217 -9.04742,-2.67217 5.79017,0 9.04742,-11.45407 9.04742,-11.45407 -9.04742,5.34436 -32.57138,-0.38207 -25.69471,-16.41871 10.49496,-24.81734 19.18021,2.67336 19.18021,2.67336 1.44867,6.4906 -6.15234,5.72644 -6.15234,5.72644 9.40959,6.10971 8.32421,-7.63564 8.32421,-7.63564 -9.04741,-19.85387 4.34263,-21.381 4.34263,-21.381 -15.19975,8.01773 -24.60934,-6.49059 -24.60934,-6.49059 2.53292,-29.7808 18.09484,-1.90921 18.09484,-1.90921 0,0 4.70479,0 4.70479,-8.78189 0,0 10.13392,-1.52712 13.75334,-3.43633 z"
     id="_163954696"
     style="fill:#ffb700;stroke:#000000;stroke-width:2.64912796" />
  <path
     d="m 614.85645,299.93506 c -7.59988,-144.3226 23.88613,-198.53865 23.88613,-198.53865 -67.67681,14.50832 -55.73431,197.39241 -55.73431,197.39241 0,0 12.3058,7.63684 31.84818,1.14624 z"
     id="_163958944"
     style="fill:#ffb700;stroke:#000000;stroke-width:2.64912796" />
  <g
     transform="matrix(1.1282476e-4,0,0,1.1902797e-4,62.449498,-730.46389)"
     id="g476">
    <path
       d="m 5710910,8412990 c 0,0 -1036090,445870 86600,1148360 0,0 400970,144340 914200,-134730 0,0 378510,-211700 500400,-311140 125100,-99440 301520,-112270 436250,99440 131510,211700 243780,211700 243780,211700 0,0 44910,32080 35280,144350 0,0 -22450,44910 9630,346430 0,0 -76990,102650 -134730,-22450 -54530,-121900 -365670,67360 -311140,288690 0,0 256610,-44910 490780,12830 0,0 32070,0 44900,-89820 0,0 0,54540 176430,44910 0,0 179630,9630 57740,-211710 0,0 -3210,-102640 28860,-125100 35290,-22450 -44900,-89810 -57730,-93020 -12830,-3210 240570,25660 243780,-170010 0,0 -298310,76990 -263030,-192460 35280,-266240 208500,-609460 208500,-609460 0,0 125100,-301520 -141140,-433040 0,0 429830,-503610 -375300,-635120 0,0 -295110,-3210 -407380,48110 -112270,48120 -317560,-35280 -307940,-128300 0,0 -83400,-44910 -105850,121890 0,0 -105850,-179630 19250,-227750 0,0 -173220,-125100 -240580,86610 0,0 38490,-388130 263030,-137930 0,0 38490,44910 9620,73780 -28870,25660 144350,9620 76990,-202090 0,0 112270,144350 51320,202090 0,0 157180,-35290 105860,-189260 0,0 89810,131520 -54540,192460 0,0 211710,121900 211710,-128300 0,0 41700,211700 359260,211700 0,0 -60940,-44900 -93020,-128300 0,0 384930,346430 516440,64150 0,0 44910,-195670 -166800,-128310 0,0 -93020,41700 -44910,137930 0,0 -622290,-407380 -901360,-368880 0,0 -599840,-9630 -522850,474740 0,0 -179640,150760 16030,295100 0,0 83400,-211700 157180,-160380 0,0 404170,288690 907780,86610 426620,-170010 404170,253400 362470,301520 0,0 -64160,54530 -234160,-67360 -118690,-83400 -721730,89810 -647960,67360 -60940,16040 -667200,163590 -978340,38490 l -545310,195670 z"
       id="_163962296"
       style="fill:#ffb700;stroke:#000000;stroke-width:22860" />
    <path
       d="m 7609860,10167600 c 0,0 16040,-105850 109060,-134720 l -109060,134720 z"
       id="_163959888"
       style="fill:#ffb700;stroke:#000000;stroke-width:22860" />
    <path
       d="m 7609860,10167600 c 0,0 16040,-105850 109060,-134720"
       id="_163960648"
       style="fill:none;stroke:#000000;stroke-width:22860" />
    <path
       d="m 7763830,10167600 c 0,0 16040,-105850 112270,-134720 l -112270,134720 z"
       id="_163965112"
       style="fill:#ffb700;stroke:#000000;stroke-width:22860" />
    <path
       d="m 7763830,10167600 c 0,0 16040,-105850 112270,-134720"
       id="_163961648"
       style="fill:none;stroke:#000000;stroke-width:22860" />
  </g>
  <path
     d="m 711.48634,269.77218 c 0,0 9.40959,-5.34554 10.13279,-12.21822 0.72434,-5.34554 -3.61829,-17.56258 -13.02787,-5.34554 -5.06696,6.87267 -3.25725,8.78188 -3.25725,8.78188 0,0 -12.66684,1.52713 -6.15234,-18.70882 0,0 -9.04854,9.54605 0.36104,21.38219 0,0 -15.56192,1.90802 -14.83758,-19.85387 0,0 0.7232,15.27129 -13.39117,17.1805 0,0 4.34262,-9.92693 0.72433,-18.70882 0,0 -8.68638,18.70882 -22.43859,12.6003 0,0 11.58146,-4.20049 8.68638,-13.74535 0,0 -14.47654,-27.48951 3.25612,-21.38099 0,0 20.62888,9.54485 32.57251,-2.67218 0,0 1.80971,6.87268 1.08538,12.21703 0,0 22.07642,-11.45406 29.67629,5.34555 0,0 3.25725,-23.2902 -19.54237,-26.72654 0,0 -1.08651,-9.92694 -4.34376,-12.59911 0,0 3.61942,9.52647 1.08651,12.96281 -2.53405,3.43633 -22.43859,-8.76351 -27.50555,-18.69044 0,0 4.34262,12.6003 1.08537,15.65456 0,0 -0.36104,-9.16396 -14.83758,-17.94466 -14.47655,-8.3998 -15.92409,-30.16287 3.61942,-28.25367 15.19975,1.14505 4.34262,12.98119 4.34262,12.98119 0,0 24.60934,-11.83614 37.27617,-9.16396 12.66684,2.67337 2.53405,-16.41753 -8.68525,-11.07198 0,0 24.97151,-21.76308 27.50442,4.58139 0,0 21.35322,1.14623 11.94363,-19.85387 0,0 12.66571,-5.34436 22.43746,13.74535 0,0 10.85713,0.76416 6.5145,-18.32674 0,0 14.47655,0.38208 18.09597,19.0909 0,0 18.09483,2.67218 27.50442,-8.78188 0,0 14.11437,16.7996 -12.30467,28.63575 0,0 12.30467,12.59911 6.15233,26.34446 0,0 -3.61942,1.52712 -5.42912,-1.14624 0,0 -3.25613,20.61802 2.89621,25.96357 0,0 -5.42913,1.90921 -7.96205,-1.52713 0,0 7.23771,6.10851 9.77063,26.72535 0,0 2.17187,6.49178 9.04854,5.72762 0,0 -9.04854,1.90921 -12.66683,0.76416 0,0 15.56192,-0.76416 22.07642,3.81723 6.15233,4.96347 3.25725,2.67337 7.96204,6.10971 2.17075,1.14505 -9.77175,1.14505 -12.30579,0 0,0 7.23883,0.76297 17.37162,10.6899 10.13392,9.92693 1.44867,5.72762 3.98159,5.72762 0,0 -21.35321,2.67218 -34.01892,-6.49059 0,0 5.06583,1.52713 11.9425,12.59911 0,0 3.61942,3.43634 7.96204,3.81842 0,0 -22.43859,7.63564 -36.1908,-4.96347 0,0 1.08538,7.63565 -3.98158,16.41753 -5.06583,8.78069 0.72433,3.43634 0.72433,3.43634 0,0 -13.75221,-6.10971 -17.73379,-19.85387 0,0 -0.36104,10.30782 -7.23771,17.1805 0,0 -5.06696,1.90921 -5.06696,-19.85387 0,0 -14.47655,19.0909 -11.58146,25.58149 0,0 -9.40959,-12.6003 -3.61829,-29.01782 0,0 -10.13392,8.3998 -15.56192,22.52723 0,0 -6.5145,-9.92693 5.06583,-21.76308 0,0 -12.66571,3.81842 -15.92296,12.59912 -3.25725,8.3998 -4.34375,-21.381 7.59988,-24.05318 l -10.85713,1.52713 z"
     id="_163962120"
     style="fill:#ffb700;stroke:#000000;stroke-width:2.64912796" />
  <g
     transform="matrix(1.1282476e-4,0,0,1.1902797e-4,62.449498,-730.46389)"
     id="g484">
    <path
       d="m 5242580,7983160 c 0,0 38500,-70570 -38490,-109060 -80190,-38490 259820,70570 493990,9620"
       id="_163964136"
       style="fill:none;stroke:#000000;stroke-width:22860" />
    <path
       d="m 5765440,7604650 c 0,0 93020,83400 16040,125100 -70570,35290 -105860,-218120 22450,-150760 128310,67360 99440,137930 266240,128310 0,0 -41700,-51320 -70570,-112270 0,0 105850,83400 282280,67360 0,0 -54530,-16040 -105860,-102640 0,0 224540,35280 285490,-25670"
       id="_162890592"
       style="fill:none;stroke:#000000;stroke-width:22860" />
    <path
       d="m 5880910,7816360 c 0,0 134730,125100 173220,125100 38490,0 -48120,-170010 -48120,-170010 0,0 64160,96230 128310,102650 0,0 16040,-44910 3210,-125100 0,0 118690,57740 141140,89810 0,0 9620,-70560 -12830,-105850"
       id="_162891384"
       style="fill:none;stroke:#000000;stroke-width:22860" />
    <path
       d="m 6265840,7749000 c 0,0 60940,19250 96230,80190 0,0 38490,-144340 -19250,-205290 0,0 105860,137930 192460,160380"
       id="_162895624"
       style="fill:none;stroke:#000000;stroke-width:22860" />
    <path
       d="m 5909780,8368080 0,-115470 c 0,0 28870,128300 105860,160380 76980,35290 -67360,-105850 -6420,-211710"
       id="_162892072"
       style="fill:none;stroke:#000000;stroke-width:22860" />
    <path
       d="m 6066960,8236570 c 0,0 -6410,170010 237370,214910 0,0 -150760,-121890 -109060,-221330 0,0 54530,218130 205290,227750 0,0 -28870,-179630 -67360,-234160 0,0 76980,179630 205290,195670 0,0 22460,-105860 -22450,-179630 0,0 12830,80190 186040,112270"
       id="_162898080"
       style="fill:none;stroke:#000000;stroke-width:22860" />
    <path
       d="m 5961110,8040900 c 0,0 93020,115480 99440,153970 0,0 44900,-99440 16030,-192460 0,0 51330,54530 118690,60940 64150,3210 25660,22460 25660,22460 0,0 0,-128310 -48110,-208500 0,0 115470,141140 160380,211700 0,0 51320,-115470 0,-205290"
       id="_162898800"
       style="fill:none;stroke:#000000;stroke-width:22860" />
    <path
       d="m 6371690,7951080 0,0 c 0,0 6420,179630 144350,243790 0,0 35280,-54530 28870,-99440"
       id="_162899624"
       style="fill:none;stroke:#000000;stroke-width:22860" />
  </g>
  <path
     d="m 704.2475,341.16992 c 0,0 -4.70479,41.61694 11.2193,78.27041 0,0 3.61942,42.37991 -11.2193,34.36219 -15.19975,-8.01773 -31.486,-3.81842 -36.55183,27.87159 0,0 43.79067,-5.34555 55.371,-1.14505 0,0 1.80971,-7.63684 17.37163,1.14505 16.28626,9.16277 32.93355,-15.65456 15.20088,-23.67229 0,0 -8.68638,-9.54485 3.61829,-16.03544 0,0 16.64842,-1.14505 22.80076,-19.85387 0,0 -9.40959,-2.67218 -20.62888,2.29129 0,0 -9.40959,-0.38208 -12.66684,5.72643 0,0 7.59988,-33.9801 19.90455,-44.67119 12.66683,-10.30902 26.41904,-45.43536 27.14338,-58.79744 l -91.56294,14.50832 z"
     id="_162900648"
     style="fill:#ffb700" />
  <path
     d="m 704.2475,341.16992 c 0,0 -4.70479,41.61694 11.2193,78.27041 0,0 3.61942,42.37991 -11.2193,34.36219 -15.19975,-8.01773 -31.486,-3.81842 -36.55183,27.87159 0,0 43.79067,-5.34555 55.371,-1.14505 0,0 1.80971,-7.63684 17.37163,1.14505 16.28626,9.16277 32.93355,-15.65456 15.20088,-23.67229 0,0 -8.68638,-9.54485 3.61829,-16.03544 0,0 16.64842,-1.14505 22.80076,-19.85387 0,0 -9.40959,-2.67218 -20.62888,2.29129 0,0 -9.40959,-0.38208 -12.66684,5.72643 0,0 7.59988,-33.9801 19.90455,-44.67119 12.66683,-10.30902 26.41904,-45.43536 27.14338,-58.79744"
     id="_162902304"
     style="fill:none;stroke:#000000;stroke-width:2.64912796" />
  <path
     d="m 683.98079,479.7649 c 0,0 1.80971,-12.59911 12.66684,-16.03545 l -12.66684,16.03545 z"
     id="_162903584"
     style="fill:#ffb700;stroke:#000000;stroke-width:2.64912796" />
  <path
     d="m 683.98079,479.7649 c 0,0 1.80971,-12.59911 12.66684,-16.03545"
     id="_162904344"
     style="fill:none;stroke:#000000;stroke-width:2.64912796" />
  <path
     d="m 701.71459,479.7649 c 0,0 1.80971,-12.59911 12.30467,-16.03545 l -12.30467,16.03545 z"
     id="_162905360"
     style="fill:#ffb700;stroke:#000000;stroke-width:2.64912796" />
  <path
     d="m 701.71459,479.7649 c 0,0 1.80971,-12.59911 12.30467,-16.03545"
     id="_162906440"
     style="fill:none;stroke:#000000;stroke-width:2.64912796" />
</svg>
